<?xml version="1.0" standalone="no"?>
<!DOCTYPE svg PUBLIC "-//W3C//DTD SVG 20010904//EN"
 "http://www.w3.org/TR/2001/REC-SVG-20010904/DTD/svg10.dtd">
<svg version="1.0" xmlns="http://www.w3.org/2000/svg"
 width="61.000000pt" height="61.000000pt" viewBox="0 0 61.000000 61.000000"
 preserveAspectRatio="xMidYMid meet">

<g transform="translate(0.000000,61.000000) scale(0.100000,-0.100000)"
fill="#000000" stroke="none">
<path d="M249 581 c-39 -40 -39 -91 0 -153 31 -48 107 -108 138 -108 45 0 162
120 163 168 0 24 -16 11 -28 -22 -16 -43 -106 -126 -137 -126 -26 0 -110 70
-130 111 -21 40 -19 95 5 119 25 25 70 26 101 1 24 -19 25 -19 48 0 13 10 36
19 52 19 28 0 69 -30 69 -50 0 -5 5 -10 10 -10 18 0 10 21 -19 51 -34 33 -74
38 -110 13 -22 -16 -25 -16 -51 0 -42 24 -77 20 -111 -13z"/>
<path d="M486 265 c-8 -9 -23 -29 -33 -45 -19 -33 -38 -40 -29 -12 11 33 -24
51 -108 58 -69 6 -80 5 -106 -14 -16 -12 -39 -21 -52 -20 -20 2 -128 -65 -128
-79 0 -12 105 -153 114 -153 20 1 108 72 113 91 4 13 18 20 50 25 28 4 41 10
35 16 -6 6 -25 5 -52 -2 -47 -13 -61 -6 -93 49 l-18 30 38 25 c37 25 40 25
113 13 57 -10 76 -17 78 -30 3 -14 -4 -17 -43 -17 -66 0 -47 -16 27 -23 57 -5
65 -3 106 25 34 23 46 27 55 18 25 -25 -94 -96 -143 -85 -16 3 -31 2 -35 -4
-4 -7 12 -11 47 -11 43 0 61 6 100 32 62 42 68 62 32 99 -31 33 -46 36 -68 14z
m44 -13 c0 -4 -14 -16 -31 -26 l-31 -18 17 26 c16 24 45 36 45 18z m-331 -106
c29 -42 38 -63 31 -70 -8 -8 -13 -8 -18 0 -4 6 -24 36 -46 67 -21 31 -35 60
-31 67 9 14 12 11 64 -64z m-34 -32 l39 -56 -25 -19 c-13 -10 -27 -19 -31 -19
-3 0 -27 28 -52 62 l-45 63 27 22 c31 26 34 24 87 -53z"/>
</g>
</svg>
