<?xml version="1.0" standalone="no"?>
<!DOCTYPE svg PUBLIC "-//W3C//DTD SVG 20010904//EN"
 "http://www.w3.org/TR/2001/REC-SVG-20010904/DTD/svg10.dtd">
<svg version="1.0" xmlns="http://www.w3.org/2000/svg"
 width="61.000000pt" height="61.000000pt" viewBox="0 0 61.000000 61.000000"
 preserveAspectRatio="xMidYMid meet">

<g transform="translate(0.000000,61.000000) scale(0.100000,-0.100000)"
fill="#000000" stroke="none">
<path d="M260 579 c0 -6 12 -26 26 -45 26 -33 26 -35 9 -54 -17 -19 -18 -19
-56 3 -29 17 -41 19 -50 10 -17 -17 -5 -39 42 -73 39 -28 44 -29 65 -16 21 14
22 14 27 -17 3 -24 -1 -35 -16 -46 -12 -8 -29 -23 -39 -33 -18 -18 -19 -18
-28 7 -9 24 -13 25 -90 25 -79 0 -80 0 -80 25 0 23 4 25 48 27 40 1 42 2 12 5
-24 3 -48 17 -77 46 -24 22 -46 38 -50 34 -3 -4 -1 -13 5 -19 7 -7 12 -46 12
-101 0 -56 4 -86 10 -82 5 3 10 38 10 76 0 44 4 68 10 64 6 -4 10 -72 10 -171
l0 -164 265 0 c170 0 265 -4 265 -10 0 -6 -98 -10 -275 -10 l-275 0 0 90 c0
53 -4 90 -10 90 -6 0 -10 -40 -10 -100 0 -93 1 -100 20 -100 11 0 20 -7 20
-15 0 -8 9 -15 20 -15 11 0 20 7 20 15 0 13 30 15 209 15 176 0 210 -2 215
-15 7 -20 46 -20 46 0 0 8 9 15 20 15 27 0 27 41 -1 66 -18 16 -42 20 -157 24
l-136 5 -9 36 c-11 48 10 98 51 122 l30 17 12 -35 c13 -38 106 -125 134 -125
39 0 29 32 -26 83 -51 48 -57 58 -72 124 -21 95 -20 106 7 58 27 -47 67 -61
67 -23 0 13 -10 41 -23 63 -17 30 -31 41 -60 48 -33 8 -36 12 -31 33 9 37 -12
54 -67 54 -28 0 -49 -5 -49 -11z m90 -14 c11 -13 8 -15 -18 -15 -32 0 -51 15
-30 23 23 9 35 7 48 -8z m-7 -42 c-7 -2 -19 -2 -25 0 -7 3 -2 5 12 5 14 0 19
-2 13 -5z m56 -39 c3 -3 0 -9 -8 -13 -9 -6 -11 -21 -6 -55 7 -46 7 -48 -16
-44 -18 2 -25 12 -32 41 -6 26 -14 37 -23 33 -19 -7 -17 14 3 37 13 13 25 17
47 13 16 -4 32 -9 35 -12z m-159 -24 c14 -11 31 -20 38 -20 14 0 16 -16 4 -24
-10 -6 -82 43 -82 56 0 13 13 9 40 -12z m218 -25 c16 -32 18 -45 9 -45 -13 0
-47 59 -47 80 0 23 18 7 38 -35z m-52 -110 c18 -43 17 -45 -1 -45 -8 0 -15 6
-15 13 0 6 -4 18 -9 26 -7 11 -14 10 -40 -5 -41 -24 -50 -11 -15 20 40 35 62
33 80 -9z m-175 -32 c8 -21 5 -38 -12 -79 -11 -29 -18 -58 -14 -63 10 -17 42
-13 49 6 6 15 8 15 16 3 17 -27 11 -30 -64 -30 -53 0 -79 -4 -90 -15 -8 -8
-22 -15 -30 -15 -14 0 -16 16 -16 103 0 57 3 107 7 110 3 4 37 7 75 7 65 0 69
-1 79 -27z m53 -27 c-6 -25 -24 -37 -24 -15 0 15 21 52 26 46 3 -3 2 -16 -2
-31z m157 -19 c50 -39 81 -69 76 -74 -8 -7 -107 65 -107 78 0 12 12 11 31 -4z
m-194 -64 c-10 -23 -27 -31 -27 -13 0 5 5 21 12 35 8 17 14 22 19 14 4 -7 2
-23 -4 -36z m5 -80 c-23 -2 -61 -2 -85 0 -23 2 -4 4 43 4 47 0 66 -2 42 -4z
m251 0 c-34 -2 -93 -2 -130 0 -37 2 -10 3 62 3 72 0 102 -1 68 -3z"/>
</g>
</svg>
