<?xml version="1.0" standalone="no"?>
<!DOCTYPE svg PUBLIC "-//W3C//DTD SVG 20010904//EN"
 "http://www.w3.org/TR/2001/REC-SVG-20010904/DTD/svg10.dtd">
<svg version="1.0" xmlns="http://www.w3.org/2000/svg"
 width="61.000000pt" height="61.000000pt" viewBox="0 0 61.000000 61.000000"
 preserveAspectRatio="xMidYMid meet">

<g transform="translate(0.000000,61.000000) scale(0.100000,-0.100000)"
fill="#000000" stroke="none">
<path d="M15 590 c-18 -20 -18 -22 -2 -50 10 -16 64 -74 120 -129 101 -98 102
-99 83 -120 -10 -11 -23 -18 -28 -15 -14 9 -175 -154 -183 -183 -6 -27 17 -78
40 -87 43 -16 65 -5 150 77 47 45 85 90 85 99 0 32 17 27 60 -17 24 -24 47
-42 52 -38 6 3 -2 17 -16 32 l-26 27 38 37 38 37 83 -84 c69 -72 81 -89 76
-108 -15 -49 -52 -58 -94 -22 -43 36 -55 20 -13 -17 40 -35 75 -37 107 -4 45
45 36 67 -80 185 l-106 107 33 32 c28 27 34 29 37 15 3 -19 40 -53 56 -54 16
0 85 74 85 91 0 21 -32 49 -54 49 -12 0 -16 5 -13 14 7 19 -111 133 -147 142
-42 10 -88 -4 -123 -38 -30 -29 -32 -33 -17 -49 11 -12 25 -16 48 -12 27 4 37
0 55 -23 l22 -28 -41 -40 -41 -41 -98 101 c-94 95 -140 134 -159 134 -5 0 -17
-9 -27 -20z m447 -67 c31 -31 55 -60 53 -63 -5 -9 23 -35 48 -43 24 -9 21 -22
-9 -52 -29 -29 -48 -28 -52 3 -5 31 -28 47 -47 32 -22 -18 -64 21 -58 54 7 33
-60 90 -94 81 -37 -9 -25 16 18 38 48 24 75 15 141 -50z m-378 36 c26 -20 26
-22 10 -40 -13 -15 -20 -16 -31 -7 -20 17 -35 47 -28 58 9 15 19 12 49 -11z
m141 -149 c79 -79 97 -102 87 -112 -10 -10 -33 8 -114 89 -88 88 -111 123 -80
123 4 0 52 -45 107 -100z m179 -18 c15 -18 15 -20 -1 -34 -22 -19 -53 -26 -71
-14 -11 6 -7 15 14 37 33 34 36 35 58 11z m-13 -98 c11 -13 7 -21 -24 -52 -35
-34 -38 -36 -54 -19 -16 16 -15 19 17 52 38 40 43 41 61 19z m-119 -49 c-6
-34 -16 -38 -37 -15 -17 19 -17 21 0 40 23 25 44 11 37 -25z m-87 -136 c-88
-89 -99 -95 -131 -74 -41 26 -30 53 53 137 l78 78 35 -35 35 -35 -70 -71z"/>
<path d="M410 100 c0 -5 5 -10 10 -10 6 0 10 5 10 10 0 6 -4 10 -10 10 -5 0
-10 -4 -10 -10z"/>
</g>
</svg>
