<?xml version="1.0" standalone="no"?>
<!DOCTYPE svg PUBLIC "-//W3C//DTD SVG 20010904//EN"
 "http://www.w3.org/TR/2001/REC-SVG-20010904/DTD/svg10.dtd">
<svg version="1.0" xmlns="http://www.w3.org/2000/svg"
 width="63.000000pt" height="63.000000pt" viewBox="0 0 63.000000 63.000000"
 preserveAspectRatio="xMidYMid meet">

<g transform="translate(0.000000,63.000000) scale(0.100000,-0.100000)"
fill="#000000" stroke="none">
<path d="M90 586 c0 -55 20 -62 21 -8 l1 37 8 -35 c12 -48 51 -80 101 -80 50
0 89 35 89 80 0 16 5 30 10 30 14 0 12 -115 -3 -175 l-13 -50 -84 -3 c-95 -3
-96 -3 -106 76 -3 29 -11 55 -17 59 -7 4 -7 -11 -2 -48 13 -82 11 -107 -18
-201 -14 -47 -29 -113 -33 -147 l-7 -61 30 0 c16 0 69 -14 118 -30 49 -17 104
-30 122 -30 45 0 93 26 93 50 0 22 54 108 84 132 21 17 21 16 26 -40 4 -49 8
-57 25 -57 17 0 21 9 26 55 3 30 11 67 17 82 7 18 8 37 1 62 -21 77 -76 64
-126 -29 -17 -33 -42 -67 -54 -74 -19 -13 -23 -13 -34 2 -19 27 -54 20 -92
-18 -23 -23 -33 -42 -31 -57 3 -21 9 -23 71 -26 58 -3 67 -5 67 -22 0 -48 -72
-52 -195 -10 -49 16 -97 30 -107 30 -28 0 -22 50 24 208 19 64 24 72 45 72 23
0 24 -2 18 -40 -4 -24 -3 -40 3 -40 5 0 12 18 16 40 6 36 9 40 36 40 27 0 30
-4 36 -40 4 -22 11 -40 16 -40 6 0 7 17 3 41 -7 39 -6 40 16 37 20 -2 27 -14
42 -63 28 -89 30 -93 34 -69 2 11 -7 50 -19 85 -22 61 -23 68 -11 129 8 36 12
92 11 125 -3 52 -6 60 -23 63 -17 2 -23 -5 -30 -39 -24 -103 -139 -100 -155 4
-4 24 -11 33 -27 35 -21 3 -23 -1 -23 -42z m469 -301 c12 -24 12 -34 1 -59 -7
-17 -16 -53 -19 -81 l-6 -50 -5 59 c-3 33 -10 61 -17 63 -17 6 -79 -52 -93
-87 -12 -30 -14 -30 -86 -30 -83 0 -93 11 -49 55 28 29 51 32 77 8 17 -16 20
-15 46 4 15 11 38 40 52 65 31 56 60 90 74 85 6 -2 17 -16 25 -32z"/>
<path d="M390 545 c-11 -13 -8 -14 20 -8 29 5 32 4 27 -11 -4 -10 -7 -22 -7
-27 0 -5 -11 -9 -25 -9 -14 0 -25 5 -25 11 0 5 -4 7 -10 4 -21 -13 -8 -40 47
-103 l57 -65 58 64 c32 35 58 69 58 75 0 6 -7 28 -15 48 l-15 36 -79 0 c-58 0
-82 -4 -91 -15z m108 -33 c3 -18 -1 -22 -22 -22 -19 0 -26 5 -26 18 0 39 43
43 48 4z m60 3 c11 -23 10 -25 -13 -25 -14 0 -25 4 -25 9 0 5 -3 16 -6 25 -11
28 32 19 44 -9z m-119 -76 c16 -45 14 -46 -19 -14 -35 33 -38 45 -11 45 12 0
23 -11 30 -31z m65 19 c5 -10 7 -10 12 0 6 13 44 17 44 4 0 -5 -14 -21 -31
-38 -19 -18 -28 -22 -24 -11 4 9 3 17 -3 17 -6 0 -14 -10 -18 -22 -7 -21 -8
-21 -20 12 -7 19 -13 38 -13 43 -2 12 47 8 53 -5z"/>
</g>
</svg>
