<?xml version="1.0" encoding="UTF-8"?>
<!DOCTYPE svg PUBLIC "-//W3C//DTD SVG 1.1//EN" "http://www.w3.org/Graphics/SVG/1.1/DTD/svg11.dtd">
<svg xmlns="http://www.w3.org/2000/svg" version="1.1" width="63px" height="63px" style="shape-rendering:geometricPrecision; text-rendering:geometricPrecision; image-rendering:optimizeQuality; fill-rule:evenodd; clip-rule:evenodd" xmlns:xlink="http://www.w3.org/1999/xlink">
<g><path style="opacity:0.655" fill="#000000" d="M 8.5,-0.5 C 10.1667,-0.5 11.8333,-0.5 13.5,-0.5C 13.6178,2.68827 14.4511,5.68827 16,8.5C 24.5842,12.113 28.7508,9.11302 28.5,-0.5C 30.5,-0.5 32.5,-0.5 34.5,-0.5C 35.2878,4.21486 35.4545,8.88153 35,13.5C 35.3879,12.572 36.0546,11.9054 37,11.5C 38.5971,12.8847 40.4305,13.5514 42.5,13.5C 42.5,12.1667 42.5,10.8333 42.5,9.5C 41.0695,9.42082 39.7362,9.75415 38.5,10.5C 37.5713,9.31116 37.238,7.97782 37.5,6.5C 43.8682,6.17033 50.2015,6.50367 56.5,7.5C 58.2747,10.3128 59.108,13.3128 59,16.5C 55.3833,20.2386 51.8833,24.0719 48.5,28C 47.5,28.6667 46.5,28.6667 45.5,28C 42.1167,24.0719 38.6167,20.2386 35,16.5C 33.7957,18.8231 32.9624,21.3231 32.5,24C 34.47,29.4099 36.1367,34.9099 37.5,40.5C 34.8735,42.344 35.0401,43.6773 38,44.5C 39.605,43.8993 40.9384,42.8993 42,41.5C 43.7869,37.4234 45.9536,33.59 48.5,30C 55.2724,27.083 58.6057,29.4163 58.5,37C 58.2739,40.0117 57.4406,42.845 56,45.5C 55.502,48.4816 55.3354,51.4816 55.5,54.5C 53.8333,54.5 52.1667,54.5 50.5,54.5C 50.8226,50.774 50.4892,47.1073 49.5,43.5C 44.534,47.7654 41.3673,53.0987 40,59.5C 38.8549,60.6364 37.6883,61.6364 36.5,62.5C 32.1667,62.5 27.8333,62.5 23.5,62.5C 17.0546,58.9113 10.0546,56.9113 2.5,56.5C 3.59915,45.4367 6.26581,34.7701 10.5,24.5C 8.9881,19.9403 7.9881,15.2737 7.5,10.5C 8.5,10.5 9.5,10.5 10.5,10.5C 11.1667,14.8333 11.8333,19.1667 12.5,23.5C 18.4254,23.8082 24.2588,23.4749 30,22.5C 32.0498,15.6177 32.7165,8.61772 32,1.5C 30.7765,11.696 25.2765,15.196 15.5,12C 12.2879,9.26892 10.7879,5.76892 11,1.5C 10.5026,4.14603 10.3359,6.8127 10.5,9.5C 9.5,9.5 8.5,9.5 7.5,9.5C 7.25293,6.06131 7.58627,2.72797 8.5,-0.5 Z M 45.5,9.5 C 46.5,9.5 47.5,9.5 48.5,9.5C 48.33,10.8221 48.6634,11.9887 49.5,13C 48.2068,13.49 46.8734,13.6567 45.5,13.5C 45.5,12.1667 45.5,10.8333 45.5,9.5 Z M 51.5,9.5 C 53.5901,9.45014 54.9234,10.4501 55.5,12.5C 54.3112,13.4287 52.9778,13.762 51.5,13.5C 51.5,12.1667 51.5,10.8333 51.5,9.5 Z M 42.5,19.5 C 38.9405,17.7175 38.9405,16.7175 42.5,16.5C 42.5,17.5 42.5,18.5 42.5,19.5 Z M 45.5,16.5 C 47.1033,16.3118 48.4366,16.8118 49.5,18C 48.1068,19.1711 47.2735,20.6711 47,22.5C 46.4954,20.4817 45.9954,18.4817 45.5,16.5 Z M 51.5,16.5 C 52.552,16.3505 53.552,16.5172 54.5,17C 51.2021,21.5887 50.2021,21.4221 51.5,16.5 Z M 12.5,26.5 C 13.5,26.5 14.5,26.5 15.5,26.5C 15.1866,29.2469 15.52,31.9135 16.5,34.5C 17.086,34.2907 17.586,33.9574 18,33.5C 18.4966,31.1902 18.6633,28.8568 18.5,26.5C 20.5,26.5 22.5,26.5 24.5,26.5C 24.3367,28.8568 24.5034,31.1902 25,33.5C 25.414,33.9574 25.914,34.2907 26.5,34.5C 27.48,31.9135 27.8134,29.2469 27.5,26.5C 29.1238,26.3601 30.2904,27.0267 31,28.5C 32.6384,32.7215 33.8051,37.0549 34.5,41.5C 26.8694,42.4648 23.2028,46.7981 23.5,54.5C 28.1667,54.5 32.8333,54.5 37.5,54.5C 37.762,55.9778 37.4287,57.3112 36.5,58.5C 34.3622,59.2431 32.1956,59.9097 30,60.5C 22.0355,57.9553 14.0355,55.622 6,53.5C 7.04874,44.3025 9.21541,35.3025 12.5,26.5 Z M 44.5,43.5 C 45.6386,38.1963 48.4719,34.1963 53,31.5C 54.911,32.7821 55.7444,34.6154 55.5,37C 54.0867,41.704 53.2534,46.5374 53,51.5C 52.5014,47.8484 52.3347,44.1817 52.5,40.5C 49.3855,40.3939 46.7188,41.3939 44.5,43.5 Z M 42.5,45.5 C 41.7577,47.4258 40.7577,49.2591 39.5,51C 35.1794,51.499 30.8461,51.6657 26.5,51.5C 27.0046,47.988 29.0046,45.6546 32.5,44.5C 35.5866,47.9889 38.9199,48.3222 42.5,45.5 Z"/></g>
</svg>
