<?xml version="1.0" standalone="no"?>
<!DOCTYPE svg PUBLIC "-//W3C//DTD SVG 20010904//EN"
 "http://www.w3.org/TR/2001/REC-SVG-20010904/DTD/svg10.dtd">
<svg version="1.0" xmlns="http://www.w3.org/2000/svg"
 width="61.000000pt" height="61.000000pt" viewBox="0 0 61.000000 61.000000"
 preserveAspectRatio="xMidYMid meet">

<g transform="translate(0.000000,61.000000) scale(0.100000,-0.100000)"
fill="red" stroke="none">
<path d="M17 572 c-25 -27 -25 -382 -1 -406 12 -12 37 -16 110 -16 l94 0 0
-34 c0 -28 -4 -35 -22 -38 -17 -2 -23 -10 -23 -28 0 -23 4 -25 49 -28 42 -3
48 -1 42 13 -3 9 -6 48 -6 86 l0 69 -110 0 -110 0 0 180 0 180 265 0 265 0 0
-39 c0 -34 12 -51 36 -51 2 0 4 22 4 49 0 83 8 81 -304 81 -252 0 -274 -1
-289 -18z"/>
<path d="M316 404 c-3 -9 -6 -94 -6 -189 0 -198 -1 -195 82 -195 l44 0 -4 35
c-4 34 -5 35 -48 35 l-45 0 3 147 3 148 113 3 112 3 0 -51 c0 -43 3 -50 20
-50 17 0 20 7 20 46 0 83 -2 84 -154 84 -113 0 -135 -2 -140 -16z"/>
<path d="M464 247 c-2 -7 -3 -58 -2 -113 l3 -99 33 -3 c18 -2 31 0 30 5 -2 4
2 8 7 8 6 0 9 -4 7 -8 -1 -5 12 -7 30 -5 l33 3 0 110 0 110 -68 3 c-50 2 -69
-1 -73 -11z m116 -97 l0 -80 -45 0 -45 0 0 80 0 80 45 0 45 0 0 -80z"/>
</g>
</svg>
