<?xml version="1.0" standalone="no"?>
<!DOCTYPE svg PUBLIC "-//W3C//DTD SVG 20010904//EN"
 "http://www.w3.org/TR/2001/REC-SVG-20010904/DTD/svg10.dtd">
<svg version="1.0" xmlns="http://www.w3.org/2000/svg"
 width="1440.000000pt" height="390.000000pt" viewBox="0 0 1440.000000 390.000000"
 preserveAspectRatio="xMidYMid meet">

<g transform="translate(0.000000,390.000000) scale(0.100000,-0.100000)"
fill="#000000" stroke="none">
<path d="M3585 3853 c-3 -27 -10 -68 -15 -93 -5 -25 -12 -84 -15 -133 -5 -74
-4 -88 10 -93 21 -9 87 5 80 17 -4 5 4 13 17 18 13 5 43 29 68 54 30 31 54 47
75 49 29 3 30 5 27 45 -3 37 0 44 32 68 19 14 49 28 68 31 30 5 37 2 54 -22
28 -42 32 -56 24 -85 -4 -14 -3 -34 2 -43 7 -13 5 -23 -8 -37 -9 -10 -14 -20
-11 -20 4 -1 13 -2 20 -3 6 -1 11 -7 10 -14 -2 -6 3 -9 11 -6 8 3 17 1 20 -5
7 -11 -10 -17 -67 -25 -21 -4 -48 -11 -60 -18 -12 -6 -24 -9 -27 -7 -3 2 -6
-3 -8 -13 -5 -24 33 -30 308 -49 63 -4 145 -10 182 -14 92 -8 92 -7 85 204 -4
91 -7 183 -7 204 l0 37 -58 0 c-50 0 -59 -3 -67 -22 -13 -31 -56 -31 -70 0
l-10 22 -332 0 -332 0 -6 -47z m591 -24 c30 -29 32 -33 19 -53 -17 -25 -63
-32 -87 -14 -16 13 -21 32 -19 76 2 34 47 29 87 -9z m233 -171 c30 -53 -26
-106 -92 -87 -25 7 -34 14 -32 27 2 9 4 27 4 39 2 57 91 73 120 21z"/>
<path d="M3141 3791 c-7 -5 -10 -14 -7 -20 4 -6 1 -11 -6 -11 -7 0 1 -10 19
-21 50 -32 71 -7 34 39 -22 25 -21 25 -40 13z"/>
<path d="M3010 3746 c0 -9 5 -16 10 -16 6 0 10 4 10 9 0 6 -4 13 -10 16 -5 3
-10 -1 -10 -9z"/>
<path d="M8790 3710 c-14 -5 -41 -8 -60 -9 l-34 -1 39 -40 c32 -32 46 -40 76
-40 77 0 87 19 37 67 -27 24 -38 29 -58 23z"/>
<path d="M8505 3675 c-28 -27 -32 -45 -10 -45 14 0 65 48 65 62 0 17 -32 7
-55 -17z"/>
<path d="M2820 3673 c0 -5 15 -38 34 -75 18 -36 36 -76 39 -87 4 -18 9 -20 29
-11 20 10 23 17 20 51 -3 23 1 46 7 52 6 6 11 20 11 32 0 18 -7 21 -42 24 -22
1 -49 6 -59 11 -21 12 -39 13 -39 3z"/>
<path d="M13590 3545 c-14 -8 -34 -14 -44 -15 -28 0 -82 -18 -158 -53 -59 -27
-67 -35 -73 -64 -3 -18 -10 -33 -15 -33 -6 0 -10 -5 -10 -12 0 -7 7 -5 18 5
11 10 23 13 31 8 8 -5 25 -2 41 7 26 15 30 15 48 -1 22 -20 48 -22 59 -4 4 8
16 16 25 20 20 7 77 -10 79 -24 1 -5 3 -13 4 -19 1 -5 3 -14 4 -19 0 -5 10
-12 21 -16 12 -4 24 -22 32 -47 11 -37 13 -39 26 -22 7 11 12 33 10 51 -2 17
-1 30 3 27 4 -2 14 3 22 11 9 8 20 15 26 15 13 0 15 17 2 24 -4 3 -11 2 -15
-1 -29 -29 -67 38 -45 79 9 18 8 18 -10 8 -12 -6 -20 -16 -18 -22 1 -6 -13
-12 -33 -13 -29 -1 -36 2 -36 17 0 10 6 18 14 18 7 0 11 4 7 9 -3 5 10 8 30 6
41 -4 43 5 13 45 -25 34 -25 34 -58 15z"/>
<path d="M14225 3500 c-22 -24 -22 -24 34 -38 50 -12 61 -9 61 17 0 42 -63 56
-95 21z"/>
<path d="M7672 3488 c5 -15 55 -35 64 -25 4 4 1 13 -6 22 -15 18 -64 21 -58 3z"/>
<path d="M13114 3474 c-53 -36 -66 -55 -51 -73 10 -12 9 -13 -1 -7 -11 7 -12
4 -3 -13 7 -12 8 -27 4 -34 -13 -20 -12 -36 3 -47 17 -15 34 -5 34 19 0 10 7
24 15 31 9 7 13 15 10 18 -3 3 3 14 12 25 11 11 18 37 19 63 1 24 0 44 -1 44
-1 0 -20 -12 -41 -26z"/>
<path d="M12628 3468 c-6 -37 6 -83 22 -83 11 0 15 10 14 37 -1 21 2 35 7 32
13 -8 11 10 -3 24 -19 19 -35 14 -40 -10z"/>
<path d="M10395 3460 c-4 -6 -2 -17 4 -23 15 -15 25 -2 13 19 -7 12 -11 13
-17 4z"/>
<path d="M8588 3414 c-7 -16 -8 -35 -2 -56 9 -30 14 -33 54 -36 24 -2 54 -1
68 3 20 5 23 10 17 32 -4 17 -1 31 10 43 15 16 14 18 -12 25 -15 4 -50 8 -76
10 -43 3 -50 0 -59 -21z"/>
<path d="M8999 3421 c-10 -15 -18 -17 -51 -9 -44 9 -58 5 -58 -19 0 -9 -10
-28 -22 -42 -13 -14 -16 -20 -8 -14 11 10 17 9 33 -4 15 -14 40 -18 128 -19
126 -1 136 4 122 63 -10 42 -41 56 -70 31 -13 -11 -18 -9 -31 10 -18 27 -28
28 -43 3z"/>
<path d="M12118 3415 c-9 -19 -8 -29 6 -50 9 -14 25 -25 36 -25 11 0 38 -17
59 -38 58 -56 100 -76 144 -68 50 9 49 38 0 72 -57 38 -220 134 -229 134 -2 0
-9 -11 -16 -25z"/>
<path d="M14043 3427 c-46 -16 -49 -33 -4 -31 46 2 71 12 71 30 0 16 -20 16
-67 1z"/>
<path d="M8790 3410 c-6 -12 -10 -33 -8 -48 2 -21 8 -27 28 -27 22 0 25 4 23
34 -4 63 -22 80 -43 41z"/>
<path d="M2668 3404 c-16 -8 -28 -11 -29 -7 -1 20 -18 -35 -18 -63 -1 -30 -3
-32 -48 -37 -27 -4 -223 -7 -438 -7 -461 -1 -1046 -8 -1164 -12 -52 -3 -86 -8
-88 -15 -3 -7 -10 -10 -17 -7 -23 9 -26 -59 -19 -448 4 -275 3 -381 -5 -391
-7 -9 -11 -63 -11 -152 0 -187 -19 -270 -60 -270 -31 0 -51 -31 -51 -81 0 -49
13 -63 58 -62 18 1 35 -2 39 -6 7 -6 8 -44 5 -201 -1 -121 -1 -127 14 -121 21
8 44 -22 45 -57 0 -18 2 -50 4 -72 1 -22 3 -69 4 -104 1 -56 3 -62 19 -56 30
13 282 22 407 15 22 -1 112 0 200 4 88 3 216 5 285 5 639 -4 607 -5 628 14 17
16 36 18 131 16 61 -2 112 -1 114 2 13 16 26 113 17 129 -13 25 -13 33 3 24 9
-6 9 -5 0 7 -16 20 0 44 22 35 21 -8 55 19 55 44 0 38 26 69 70 86 25 9 52 23
61 31 30 26 82 8 111 -38 22 -35 54 -43 79 -18 10 10 19 28 19 38 0 11 9 26
21 34 12 9 16 18 10 21 -5 4 -12 2 -16 -4 -8 -13 -25 -13 -25 1 0 6 -7 17 -15
25 -24 24 -17 58 18 92 36 35 76 42 97 17 7 -8 9 -15 4 -15 -5 0 -2 -5 6 -10
10 -6 11 -10 3 -10 -7 0 -13 -7 -13 -16 0 -9 5 -12 13 -8 7 5 6 0 -3 -11 -13
-16 -13 -18 0 -13 9 3 15 18 16 36 0 18 6 38 12 44 19 19 14 61 -13 101 -14
20 -30 37 -35 37 -16 0 -52 61 -55 93 -2 18 -8 52 -14 76 -5 24 -7 49 -5 55 9
24 -25 85 -51 92 -15 4 -25 13 -25 24 0 22 48 63 66 56 16 -6 34 52 34 113 0
41 -1 43 -25 37 -14 -3 -37 -9 -52 -12 -16 -4 -35 -13 -44 -20 -8 -8 -30 -17
-48 -20 -29 -6 -32 -10 -26 -33 10 -41 28 -55 55 -41 33 18 47 -3 16 -24 -24
-15 -29 -15 -62 -1 -21 8 -38 14 -40 13 -1 -2 -4 -28 -7 -58 -5 -52 -4 -56 29
-87 19 -17 34 -37 34 -43 0 -22 -33 -68 -57 -79 -12 -6 -23 -18 -23 -26 0 -9
-5 -13 -10 -10 -6 4 -8 10 -5 15 3 5 -4 8 -15 7 -24 -2 -26 -12 -5 -21 13 -4
14 -10 5 -26 -9 -17 -8 -19 7 -13 17 6 17 5 1 -12 -10 -11 -20 -16 -23 -13 -3
3 -7 35 -9 72 -2 49 -8 72 -23 89 -11 12 -31 49 -44 82 -25 64 -25 64 -28 110
-1 23 -3 27 -11 15 -13 -19 -13 -8 0 24 6 17 17 26 30 26 35 0 20 33 -20 43
-46 11 -48 14 -74 88 -47 135 6 204 114 149 47 -24 45 -24 65 -4 10 11 14 26
10 47 -8 45 6 59 61 64 68 7 87 -15 92 -107 4 -57 7 -69 23 -73 28 -8 40 23
30 76 -5 30 -4 57 4 81 18 50 4 58 -101 58 -112 -1 -139 13 -164 88 -10 30
-16 58 -14 62 3 4 20 10 39 14 39 7 57 23 28 25 -33 2 -46 -2 -65 -24 -17 -19
-19 -20 -14 -3 5 15 4 17 -8 7 -10 -9 -16 -9 -21 -1 -5 8 -11 8 -20 0 -8 -7
-19 -9 -25 -5 -5 3 -10 2 -10 -3 0 -5 -10 -8 -22 -7 -13 1 -23 6 -23 11 0 5
-3 14 -7 19 -10 17 -1 121 13 143 13 21 82 40 111 29 7 -2 35 4 61 14 56 22
61 23 51 7 -5 -7 -3 -8 7 -3 23 15 58 14 73 -1 8 -8 18 -14 21 -14 4 0 16 -11
27 -26 11 -14 23 -23 26 -20 3 3 10 2 17 -4 7 -6 29 -1 63 15 29 13 52 21 52
18 0 -3 6 -1 13 4 6 6 36 10 65 9 35 -1 52 2 52 10 0 7 6 15 13 17 10 4 10 6
0 6 -21 2 -15 17 6 17 11 0 17 -4 15 -8 -8 -12 4 -10 36 7 17 9 30 12 31 8 0
-5 4 2 9 15 5 12 16 22 25 22 8 0 15 5 15 10 0 6 6 10 14 10 25 0 29 21 7 37
-12 8 -30 23 -40 34 -23 25 -102 21 -189 -11 -50 -18 -75 -22 -128 -17 -37 3
-81 1 -98 -4 -17 -5 -66 -12 -109 -15 l-77 -7 -51 52 c-54 55 -60 58 -101 35z
m-1596 -266 c2 -6 11 -13 19 -14 7 -2 31 -7 52 -13 43 -10 189 -6 245 7 20 5
46 10 57 10 11 1 31 3 45 4 23 3 25 0 26 -43 2 -41 -1 -48 -27 -63 -16 -9 -33
-15 -37 -12 -4 2 -30 0 -57 -6 -67 -14 -38 -25 75 -27 118 -3 130 -12 130
-100 0 -47 -4 -72 -14 -80 -10 -8 -68 -12 -185 -12 -93 1 -171 -2 -173 -6 -2
-5 -2 -35 0 -69 l4 -61 85 -6 c95 -7 146 -27 210 -82 40 -34 79 -99 88 -145
10 -50 15 -28 15 61 1 143 22 285 53 346 35 69 106 139 154 152 21 6 68 14
104 17 83 8 186 -20 242 -67 68 -57 120 -185 137 -341 13 -118 6 -223 -21
-328 -52 -195 -146 -272 -333 -272 -69 0 -91 4 -132 25 -88 45 -140 116 -174
238 -10 38 -19 72 -19 74 -1 3 -2 13 -2 23 -1 9 -7 -20 -14 -66 -28 -175 -120
-272 -294 -307 -71 -15 -99 -16 -194 -6 -137 14 -147 22 -147 116 0 45 5 69
18 85 18 22 18 22 76 5 73 -21 185 -17 240 10 48 23 81 88 71 138 -21 100
-125 142 -287 117 -73 -12 -82 -11 -93 4 -11 15 -30 208 -27 276 3 88 16 228
22 245 6 16 2 22 -24 31 -32 10 -69 65 -60 88 2 6 23 23 47 38 44 28 93 36 99
16z m1316 -160 c6 -6 28 -11 48 -10 35 1 36 1 30 -28 -3 -19 -1 -30 6 -30 21
0 48 -33 48 -58 0 -46 -56 -81 -85 -53 -6 5 -23 11 -40 13 -22 2 -31 9 -33 25
-2 13 -17 32 -33 43 -33 24 -39 63 -12 92 18 20 53 24 71 6z m268 -562 c0 -14
-3 -23 -7 -20 -6 3 -6 22 0 42 3 10 7 -2 7 -22z m444 -345 c5 -11 7 -26 4 -34
-3 -8 -1 -18 5 -22 8 -4 6 -11 -4 -21 -8 -9 -15 -24 -15 -35 0 -26 -9 -24 -47
11 -38 35 -41 51 -12 91 23 33 54 38 69 10z m-573 -636 c20 -21 7 -54 -24 -61
-13 -4 -70 -4 -126 -2 -56 3 -147 2 -201 -3 -110 -9 -129 -3 -124 39 l3 24
184 1 c102 0 196 3 210 6 42 12 63 10 78 -4z"/>
<path d="M1290 2990 c20 -13 33 -13 25 0 -3 6 -14 10 -23 10 -15 0 -15 -2 -2
-10z"/>
<path d="M1929 2806 c-14 -8 -30 -25 -36 -39 -39 -85 -43 -409 -7 -517 16 -46
25 -58 56 -73 56 -27 104 -10 129 47 24 56 35 185 28 327 -8 136 -30 222 -62
244 -35 22 -79 27 -108 11z"/>
<path d="M14360 3400 c0 -5 6 -13 14 -17 8 -4 16 -17 19 -28 3 -12 5 -4 6 18
1 31 -2 37 -19 37 -11 0 -20 -4 -20 -10z"/>
<path d="M11383 3383 c-7 -2 -13 -13 -13 -23 0 -14 10 -20 41 -25 57 -10 71 8
28 34 -36 22 -37 22 -56 14z"/>
<path d="M4500 3298 c0 -73 15 -67 23 10 5 41 3 52 -8 52 -12 0 -15 -14 -15
-62z"/>
<path d="M13261 3322 c-20 -22 -24 -37 -22 -82 3 -99 5 -120 13 -120 5 0 6
-11 2 -24 -3 -13 -1 -26 4 -30 5 -3 0 -25 -12 -50 -15 -32 -31 -49 -61 -64
-22 -10 -48 -18 -58 -16 -22 3 -80 -110 -71 -139 11 -34 -34 0 -50 38 -18 43
-12 169 9 201 8 13 15 30 15 39 0 8 5 15 10 15 6 0 10 7 10 15 0 9 7 18 15 21
8 4 13 10 10 14 -3 5 -1 11 5 15 15 9 12 25 -5 25 -9 0 -18 -13 -22 -31 -3
-17 -13 -33 -22 -37 -22 -8 -66 -55 -84 -89 -14 -27 -28 -85 -43 -183 -3 -25
-10 -49 -14 -55 -5 -5 -11 -39 -14 -75 -16 -177 -18 -180 -88 -200 l-38 -11
14 -32 c14 -34 36 -38 63 -11 8 8 19 14 25 14 6 0 16 7 22 16 7 9 23 15 37 14
77 -6 230 0 264 10 22 6 52 14 68 17 20 4 27 11 27 29 0 13 5 24 10 24 7 0 7
6 2 18 -12 23 -13 122 -1 122 5 0 9 11 9 25 0 13 7 44 15 67 22 66 26 153 9
195 -9 19 -12 43 -9 52 11 27 15 121 5 121 -6 0 -7 19 -3 45 3 25 1 50 -4 57
-16 21 -22 57 -9 62 6 2 7 5 1 5 -5 0 -21 -12 -34 -27z"/>
<path d="M5347 3310 c-14 -11 -30 -20 -35 -20 -6 0 -12 -4 -14 -8 -5 -14 -110
-88 -163 -116 -105 -56 -146 -82 -154 -95 -5 -8 -35 -28 -67 -45 l-59 -31 -5
-74 -5 -73 -39 -4 c-49 -4 -75 10 -87 46 -10 27 -12 28 -37 15 -15 -8 -62 -30
-106 -50 l-78 -36 6 -367 c4 -202 6 -451 6 -555 0 -103 3 -186 8 -186 18 3 46
-3 35 -8 -9 -3 -9 -10 3 -28 12 -18 14 -37 9 -71 -3 -26 -8 -51 -11 -56 -3 -4
0 -8 6 -8 6 0 8 -5 5 -10 -4 -6 -11 -8 -16 -5 -10 7 -12 -6 -3 -29 3 -9 10
-13 15 -10 5 3 5 -5 0 -19 -10 -27 -4 -41 22 -45 19 -3 19 -2 23 111 1 52 -2
77 -10 77 -6 0 -5 4 3 9 17 11 8 52 -15 76 -9 9 -14 18 -11 21 8 8 47 -15 49
-29 5 -40 6 -88 6 -327 0 -146 1 -433 1 -638 1 -240 -3 -372 -9 -372 -6 0 -10
15 -10 33 l-1 32 -14 -30 c-7 -16 -14 -24 -14 -17 -2 22 -19 13 -19 -10 0 -13
-4 -52 -8 -87 -5 -49 -3 -65 7 -72 10 -6 11 -9 2 -9 -7 0 -13 -10 -13 -22 0
-23 1 -22 13 2 7 14 18 25 24 25 6 0 15 3 19 7 24 25 33 -22 15 -78 -5 -16
-11 -50 -14 -77 l-5 -47 1462 0 1461 0 1 208 c0 266 7 468 16 478 4 4 15 1 23
-6 11 -9 12 -15 5 -20 -8 -5 -8 -20 0 -56 11 -47 12 -170 2 -220 -3 -19 -7
-22 -18 -13 -14 11 -19 5 -14 -16 1 -5 2 -23 2 -39 0 -15 2 -26 5 -22 3 3 15
-1 26 -9 14 -10 21 -26 21 -57 1 -24 3 -85 4 -135 1 -54 6 -93 12 -93 6 0 10
6 10 13 0 21 66 47 120 47 26 0 76 -7 109 -16 34 -8 66 -12 71 -9 25 15 -2
118 -35 133 -17 8 -31 5 -64 -14 -45 -25 -81 -20 -81 12 0 8 -12 42 -26 76
-30 73 -27 132 11 176 l23 27 31 -22 c39 -29 59 -22 133 51 73 73 78 89 39
122 -26 21 -31 32 -29 65 1 31 -5 46 -28 70 -42 45 -62 53 -89 39 -20 -11 -21
-16 -12 -40 8 -21 7 -37 -4 -66 -18 -47 -36 -54 -45 -17 -3 15 -8 36 -10 45
-3 9 4 26 15 37 18 18 18 20 3 34 -43 36 -92 21 -92 -29 0 -13 -4 -26 -10 -29
-5 -3 -10 -19 -10 -34 0 -16 -9 -48 -20 -72 l-20 -44 -1 40 c0 22 -3 154 -5
294 -3 167 -8 259 -15 267 -9 10 -9 14 0 14 6 0 11 11 11 25 0 13 6 28 14 32
7 4 21 22 29 40 9 17 24 38 32 47 14 14 13 17 -10 32 -24 16 -25 20 -20 92 5
68 3 77 -16 90 -29 20 -22 63 13 80 36 17 68 59 68 88 0 30 -20 24 -75 -23
l-40 -34 -3 31 c-4 35 -25 48 -48 29 -23 -19 -13 -113 15 -143 22 -23 30 -96
11 -96 -5 0 -10 -7 -10 -15 0 -8 5 -15 11 -15 8 0 10 -20 5 -67 -3 -38 -6 -76
-6 -86 0 -13 -7 -10 -30 15 l-29 33 -2 -180 c-2 -140 -4 -97 -12 189 -8 350
-8 371 9 383 10 7 30 13 46 13 l28 0 0 74 c0 77 5 86 49 86 37 0 81 31 81 56
0 23 -3 24 -70 24 l-70 0 0 158 c-1 86 -3 182 -5 212 -3 30 -8 251 -11 492
l-6 436 -92 6 c-50 3 -352 13 -671 21 -319 9 -710 20 -870 25 -461 15 -528 14
-558 -10z m313 -310 c0 -11 7 -20 15 -20 8 0 15 -4 15 -10 0 -5 -7 -10 -15
-10 -12 0 -15 -13 -15 -55 0 -42 3 -55 15 -55 8 0 15 -4 15 -10 0 -13 -37 -13
-45 0 -4 6 -9 34 -12 63 -3 29 -11 55 -17 60 -8 5 -8 9 0 15 6 4 13 15 17 25
9 23 27 22 27 -3z m-755 -80 c0 -50 -4 -75 -12 -77 -10 -4 -13 16 -13 77 0 61
3 81 13 78 8 -3 12 -28 12 -78z m115 65 c0 -10 -10 -15 -30 -15 -39 0 -38 -12
5 -44 39 -30 43 -46 19 -71 -19 -19 -75 -17 -82 4 -3 10 3 12 26 6 47 -10 51
13 9 48 -40 31 -47 60 -19 76 27 16 72 13 72 -4z m114 9 c26 -10 18 -24 -12
-24 -35 0 -52 -16 -52 -51 0 -34 24 -59 56 -59 13 0 24 -4 24 -10 0 -20 -69
-11 -90 12 -30 33 -27 91 6 117 28 22 42 25 68 15z m144 -23 c52 -66 -4 -163
-75 -129 -35 16 -52 74 -35 113 21 45 81 54 110 16z m72 -47 c5 -55 7 -59 30
-59 23 0 25 4 30 58 3 31 10 58 15 60 14 3 19 -133 5 -147 -7 -7 -10 -6 -10 3
0 11 -3 11 -14 1 -22 -18 -59 -8 -73 20 -17 34 -17 133 0 128 7 -3 14 -29 17
-64z m225 44 c17 -25 21 -138 5 -138 -5 0 -11 5 -11 10 -1 6 -3 15 -4 20 -1 6
-3 30 -4 55 -1 40 -3 45 -25 45 -28 0 -36 -16 -36 -75 0 -24 -4 -47 -10 -50
-5 -3 -10 -3 -10 2 -1 4 -3 34 -7 65 -3 32 -3 63 0 70 2 7 23 14 45 15 33 2
44 -2 57 -19z m1262 -134 c24 -6 50 -65 38 -84 -8 -13 -92 -11 -120 3 -37 19
-42 29 -37 75 2 13 78 17 119 6z m-1251 -110 l202 -6 6 -45 c3 -25 6 -84 6
-131 l0 -85 -320 6 -320 5 0 -182 0 -182 68 9 c126 19 287 -17 396 -87 148
-95 215 -242 216 -473 0 -130 -12 -189 -61 -289 -46 -94 -141 -194 -224 -237
-119 -60 -184 -72 -385 -72 -162 0 -272 10 -342 31 -16 5 -18 22 -18 171 0
153 1 165 18 158 9 -5 62 -24 117 -43 89 -30 112 -34 205 -35 119 0 180 17
254 75 56 43 76 78 90 162 16 89 5 166 -29 217 -32 49 -112 102 -191 125 -79
24 -249 22 -359 -5 -44 -11 -81 -19 -81 -18 -4 4 -6 310 -5 620 l1 328 278 -6
c152 -3 368 -8 478 -11z m1002 1 c203 -48 315 -186 388 -480 15 -60 35 -118
44 -128 18 -20 70 -31 70 -15 0 5 5 6 10 3 6 -4 54 -8 108 -11 53 -2 113 -7
132 -10 19 -4 62 -6 96 -5 34 1 73 -3 88 -8 l26 -10 -1 -136 c0 -111 -3 -135
-15 -135 -8 0 -14 -4 -14 -8 0 -4 -17 -26 -37 -48 l-37 -39 0 -97 c-1 -93 -2
-98 -22 -98 -11 0 -24 3 -28 7 -3 4 -12 8 -20 9 -7 1 -31 13 -54 28 -28 17
-40 31 -36 41 8 20 21 19 27 -2 4 -14 5 -12 6 5 0 12 9 30 19 40 17 17 26 76
10 66 -4 -3 -8 0 -8 5 0 19 -76 62 -106 60 -16 -1 -33 0 -39 2 -15 5 -85 -24
-79 -33 3 -4 0 -8 -5 -8 -6 0 -11 6 -11 13 0 8 -3 8 -9 -2 -6 -9 -6 -22 0 -34
6 -10 8 -25 5 -33 -3 -8 1 -14 9 -14 8 0 15 -5 15 -11 0 -5 4 -8 8 -5 16 10
34 -11 27 -33 -6 -19 -9 -20 -23 -9 -13 11 -15 10 -9 -4 4 -13 1 -18 -11 -19
-34 -2 -67 -1 -81 2 -9 3 -20 -22 -36 -86 -61 -238 -128 -361 -233 -432 -80
-54 -143 -73 -257 -80 -157 -9 -272 26 -365 113 -92 86 -155 208 -189 369 -81
376 -42 811 94 1060 18 33 33 73 33 89 -1 31 15 46 50 46 12 0 46 13 75 30
104 58 254 76 385 45z m555 -27 c41 -48 9 -138 -48 -138 -33 0 -75 42 -75 74
0 84 73 122 123 64z m137 20 c0 -7 -36 -80 -79 -163 -62 -118 -84 -151 -102
-153 l-22 -4 25 44 c14 23 53 98 88 166 35 67 70 122 77 122 7 0 13 -6 13 -12z
m41 -167 c19 -15 24 -29 24 -66 0 -37 -5 -51 -24 -66 -31 -26 -57 -24 -86 6
-36 35 -35 96 1 124 33 26 55 26 85 2z m-1639 -165 c4 -6 2 -16 -4 -23 -6 -7
-7 -13 -4 -13 4 0 2 -9 -4 -20 -13 -25 -48 -39 -111 -46 -40 -4 -48 -2 -53 13
-16 52 15 91 79 99 28 3 52 8 53 9 6 6 36 -8 44 -19z m1885 -758 c-3 -8 -6 -5
-6 6 -1 11 2 17 5 13 3 -3 4 -12 1 -19z m3 -43 c0 -14 -2 -25 -4 -25 -2 0 -6
11 -8 25 -3 14 -1 25 3 25 5 0 9 -11 9 -25z"/>
<path d="M5201 2956 c-17 -20 -10 -77 12 -90 25 -16 51 4 55 43 4 36 -12 61
-38 61 -10 0 -23 -6 -29 -14z"/>
<path d="M6385 2466 c-65 -29 -93 -81 -122 -222 -15 -74 -18 -137 -18 -369 1
-383 28 -532 111 -605 80 -70 231 -43 279 50 25 49 43 148 55 305 9 108 9 150
1 153 -6 2 -11 8 -11 13 0 6 4 8 8 5 5 -3 7 5 6 17 -1 12 -3 22 -4 22 -1 0 -3
12 -4 27 -1 14 2 24 7 21 5 -3 6 44 2 103 -18 310 -54 428 -145 474 -45 23
-120 26 -165 6z m128 -480 c11 1 17 -2 14 -9 -14 -39 -17 -56 -8 -61 6 -4 7
-14 4 -23 -4 -11 -3 -14 5 -9 11 7 16 -7 15 -41 -1 -7 4 -13 9 -13 6 0 8 -7 4
-15 -3 -8 -1 -14 3 -12 9 2 11 -2 11 -29 0 -13 -3 -14 -13 -5 -10 8 -14 7 -14
-4 0 -7 5 -13 11 -12 6 1 11 -4 10 -10 -4 -45 -5 -46 -21 -13 -19 40 -33 52
-50 45 -7 -2 -11 7 -11 26 1 16 -2 32 -5 36 -4 3 -1 13 5 22 7 9 9 13 4 9 -11
-10 -46 35 -46 59 0 14 -2 15 -9 4 -9 -13 -51 -7 -51 8 0 12 -30 9 -30 -3 0
-6 -5 -3 -11 7 -21 35 -5 46 65 42 37 -1 69 2 72 7 4 7 9 7 13 0 3 -5 14 -8
24 -6z m-226 -21 c0 -8 -4 -15 -9 -15 -10 0 -11 14 -1 23 9 10 10 9 10 -8z
m295 8 c-6 -2 -10 -9 -6 -14 3 -5 0 -9 -5 -9 -12 0 -14 13 -4 23 3 4 11 7 17
6 6 0 5 -3 -2 -6z m59 -112 c-7 -12 -16 -21 -22 -21 -6 0 -7 5 -2 13 8 12 10
18 12 39 1 9 4 9 12 1 8 -8 8 -17 0 -32z m-44 -1 c-1 -12 -5 -16 -10 -11 -5 5
-6 14 -3 20 11 16 15 13 13 -9z m73 -20 c0 -5 -5 -10 -11 -10 -5 0 -7 5 -4 10
3 6 8 10 11 10 2 0 4 -4 4 -10z m-40 -70 c0 -5 -7 -10 -15 -10 -8 0 -15 -4
-15 -10 0 -5 -6 -10 -12 -10 -7 1 -2 10 11 20 26 23 31 24 31 10z m0 -30 c0
-5 -2 -10 -4 -10 -3 0 -8 5 -11 10 -3 6 -1 10 4 10 6 0 11 -4 11 -10z"/>
<path d="M6512 1854 c-14 -16 -5 -18 17 -5 7 5 9 11 5 14 -5 3 -15 -1 -22 -9z"/>
<path d="M6506 1807 c-18 -13 -18 -14 0 -21 10 -4 15 -4 11 0 -4 4 1 13 11 20
23 18 1 18 -22 1z"/>
<path d="M7050 1690 c0 -5 7 -7 15 -4 8 4 15 8 15 10 0 2 -7 4 -15 4 -8 0 -15
-4 -15 -10z"/>
<path d="M7345 1600 c3 -5 8 -10 11 -10 2 0 4 5 4 10 0 6 -5 10 -11 10 -5 0
-7 -4 -4 -10z"/>
<path d="M7046 1587 c3 -10 9 -15 12 -12 3 3 0 11 -7 18 -10 9 -11 8 -5 -6z"/>
<path d="M7074 2665 c-9 -22 4 -65 20 -65 16 0 26 32 19 60 -6 23 -31 27 -39
5z"/>
<path d="M7264 2517 c-10 -27 0 -72 16 -72 11 0 15 11 15 39 0 40 -20 61 -31
33z"/>
<path d="M13441 3287 c-17 -19 -21 -34 -20 -66 4 -55 18 -66 63 -47 42 17 46
42 18 96 -24 43 -33 46 -61 17z"/>
<path d="M41 3268 c-5 -12 -7 -34 -4 -48 2 -14 6 -65 8 -115 1 -49 3 -93 4
-97 2 -16 48 -31 92 -29 26 1 59 -3 73 -9 14 -5 26 -6 26 -1 0 5 9 7 20 4 11
-3 28 -2 37 2 16 6 16 8 -5 25 -12 10 -48 24 -80 30 -86 17 -109 29 -132 67
-11 19 -14 31 -8 27 8 -5 7 0 -2 11 -15 19 -15 22 1 42 10 12 13 52 6 87 -6
29 -26 31 -36 4z"/>
<path d="M8322 3180 c-44 -10 -48 -16 -55 -70 -7 -56 2 -73 35 -65 14 4 49 -2
82 -13 60 -20 140 -21 225 -1 50 11 64 3 59 -32 -2 -18 -12 -25 -40 -32 -21
-5 -38 -12 -38 -15 0 -4 23 -23 52 -42 91 -61 106 -77 119 -130 7 -28 16 -50
20 -50 4 0 15 22 23 48 19 57 66 116 109 139 21 10 58 16 107 16 83 1 133 -18
182 -70 62 -65 100 -213 97 -383 -5 -278 -92 -420 -257 -420 -118 0 -208 72
-242 195 -7 25 -16 45 -20 45 -4 0 -10 -21 -14 -48 -12 -92 -73 -148 -205
-191 -75 -25 -139 -27 -205 -7 -69 21 -86 40 -86 96 0 80 15 89 136 75 103
-12 174 28 174 97 0 63 -48 98 -135 98 -65 0 -97 32 -94 96 4 64 16 76 86 84
92 11 117 27 121 75 6 83 -62 109 -180 68 -38 -13 -52 -14 -73 -5 -22 10 -25
17 -25 67 0 61 12 92 43 114 19 14 18 15 -17 33 -20 10 -36 23 -36 30 0 6 -12
21 -27 34 l-28 24 -6 -22 c-3 -13 -4 -113 -2 -223 3 -125 0 -230 -7 -280 -7
-44 -13 -108 -15 -142 -2 -34 -8 -93 -14 -132 -9 -57 -8 -81 4 -130 11 -41 15
-97 13 -183 -1 -68 1 -162 6 -209 11 -113 5 -136 -42 -156 -77 -32 -87 -36
-99 -39 -20 -4 -78 -41 -97 -63 -10 -11 -25 -35 -34 -53 -12 -23 -24 -33 -39
-32 -13 0 -23 -5 -23 -13 0 -7 5 -13 11 -13 5 0 7 -4 4 -10 -3 -5 -2 -10 2
-10 5 0 7 -15 5 -34 -3 -23 -12 -38 -28 -47 -45 -24 -25 -62 49 -93 36 -15 39
-14 73 9 21 15 57 26 92 30 31 3 67 11 79 17 12 6 39 10 60 9 123 -5 136 -9
203 -71 20 -19 45 -41 54 -48 9 -7 14 -17 11 -22 -19 -31 61 -100 115 -100 31
0 70 -23 114 -69 l39 -40 62 6 c41 4 65 2 69 -6 14 -22 25 -10 32 36 5 27 7
52 5 58 -9 34 12 72 59 104 43 29 61 35 136 42 65 6 94 13 122 32 50 33 95 76
117 111 17 28 17 29 -1 22 -11 -4 -41 -10 -69 -13 -29 -3 -68 -18 -96 -34 -56
-35 -57 -35 -139 -8 -97 32 -128 49 -150 85 -25 40 -18 60 31 84 34 18 63 20
258 23 120 1 222 -1 226 -4 6 -6 7 -24 5 -71 -1 -10 -8 -18 -15 -18 -8 0 -12
-6 -9 -13 3 -9 18 -13 41 -12 20 2 53 -4 72 -12 25 -11 54 -14 96 -10 82 8 95
14 94 46 -1 27 10 251 17 336 2 28 5 65 6 83 1 17 5 32 9 32 4 0 3 17 -1 38
-26 121 -30 171 -21 257 8 77 7 93 -6 108 -9 9 -24 17 -33 17 -21 0 -50 61
-50 108 -1 31 -6 40 -33 57 -25 15 -37 35 -54 85 -19 57 -22 87 -22 246 -1
138 3 185 13 199 12 16 12 22 -1 41 -9 15 -16 58 -19 125 -2 72 -8 107 -18
117 -12 13 -100 15 -568 17 -304 1 -568 -1 -586 -5z m1062 -307 c14 -15 31
-39 38 -52 11 -20 10 -25 -7 -37 -31 -23 -51 -16 -89 28 -34 39 -45 75 -29 92
14 14 63 -3 87 -31z m-69 -1295 c39 0 79 2 90 4 15 2 20 -3 20 -22 0 -24 -3
-25 -50 -23 -27 1 -67 4 -88 7 -20 2 -58 -2 -84 -10 -66 -20 -100 -18 -113 7
-9 15 -8 24 1 36 11 12 26 14 84 7 38 -4 102 -7 140 -6z m-1041 -222 c36 -22
42 -22 72 -10 43 18 68 18 83 0 10 -12 8 -17 -11 -27 -12 -7 -29 -18 -36 -26
-12 -12 -17 -12 -31 2 -24 21 -40 19 -63 -10 -32 -42 -108 -28 -108 20 0 38
18 75 37 75 10 0 36 -11 57 -24z"/>
<path d="M13581 3099 c-19 -16 -22 -22 -12 -29 20 -12 -15 -28 -59 -27 -22 0
-34 -4 -32 -11 1 -7 -3 -11 -10 -9 -6 1 -26 -25 -43 -59 -32 -64 -34 -80 -21
-234 3 -36 8 -114 12 -175 3 -60 10 -115 16 -122 5 -7 7 -16 4 -21 -5 -9 57
-15 157 -15 75 1 86 14 87 110 0 39 3 78 6 87 5 12 0 16 -18 16 -14 0 -28 3
-32 8 -4 4 -21 8 -37 8 -48 2 -49 3 -49 28 0 36 10 56 29 56 23 1 51 24 51 43
0 8 -11 24 -25 35 -36 29 -41 70 -16 121 12 23 19 46 16 51 -4 6 7 13 24 16
35 7 39 23 15 59 -8 13 -14 29 -13 37 7 51 -10 60 -50 27z"/>
<path d="M10370 3076 c0 -15 18 -31 26 -23 7 7 -7 37 -17 37 -5 0 -9 -6 -9
-14z"/>
<path d="M13455 3060 c-3 -5 -1 -10 4 -10 6 0 11 5 11 10 0 6 -2 10 -4 10 -3
0 -8 -4 -11 -10z"/>
<path d="M10425 3030 c-3 -5 3 -10 15 -10 12 0 18 5 15 10 -3 6 -10 10 -15 10
-5 0 -12 -4 -15 -10z"/>
<path d="M14384 2953 c-4 -21 -8 -45 -9 -53 -1 -9 -7 -25 -13 -36 -7 -13 -7
-25 -1 -37 7 -11 6 -24 -1 -38 -9 -15 -8 -24 1 -35 14 -17 23 -100 21 -191 -1
-34 3 -65 8 -68 7 -4 10 83 10 244 0 138 -2 251 -4 251 -2 0 -7 -17 -12 -37z"/>
<path d="M13832 2959 c-23 -4 -47 -11 -52 -14 -6 -3 -10 -2 -10 2 0 12 -37 14
-64 3 -28 -10 -39 -45 -20 -61 11 -9 18 -6 34 12 10 13 19 28 20 32 0 12 54 1
82 -17 14 -9 28 -13 31 -9 7 6 8 -1 11 -62 0 -16 6 -33 11 -37 7 -5 6 -8 0 -8
-10 0 -13 -14 -15 -73 -1 -15 -7 -30 -15 -33 -19 -8 -6 -41 18 -48 12 -3 35
-6 51 -6 l29 0 -6 153 c-4 83 -7 158 -7 165 0 14 -33 14 -98 1z"/>
<path d="M4761 2946 c-7 -8 -11 -27 -9 -43 2 -22 9 -29 30 -31 24 -3 28 1 33
32 4 19 4 39 0 45 -9 16 -40 13 -54 -3z"/>
<path d="M4103 2907 c-53 -19 -60 -24 -52 -39 6 -10 18 -18 27 -18 9 -1 31 -9
48 -18 107 -59 144 -74 157 -63 11 9 15 41 7 61 -1 3 -2 8 -1 13 0 4 -3 7 -8
7 -5 0 -11 10 -15 23 -12 50 -78 64 -163 34z"/>
<path d="M420 2904 c0 -8 -4 -13 -9 -10 -4 3 -20 -8 -35 -25 -57 -64 -120 -69
-161 -15 -19 24 -43 38 -30 16 3 -5 2 -10 -3 -10 -5 0 -9 -17 -8 -37 l1 -37
65 3 c36 2 97 4 135 5 114 4 141 33 89 95 -28 34 -44 39 -44 15z"/>
<path d="M12033 2844 c-8 -22 8 -64 29 -78 14 -8 21 -6 32 9 20 26 20 28 -9
59 -28 30 -43 33 -52 10z"/>
<path d="M10178 2776 c-3 -13 5 -55 17 -93 12 -37 23 -95 24 -128 2 -65 9 -79
37 -73 14 2 22 17 28 50 8 43 7 51 -17 85 -14 21 -38 70 -52 108 -15 39 -28
71 -30 73 -1 2 -5 -8 -7 -22z"/>
<path d="M10763 2769 c-31 -35 -126 -103 -159 -113 -11 -3 -40 1 -64 9 -23 8
-48 15 -55 15 -23 0 -55 -34 -64 -68 l-10 -32 97 -49 c66 -33 116 -50 157 -56
33 -4 88 -18 123 -32 35 -14 65 -23 68 -21 2 3 7 36 10 74 3 38 10 81 16 97 9
23 6 38 -17 90 -15 34 -38 75 -51 90 l-23 28 -28 -32z"/>
<path d="M8996 2755 c-28 -29 -40 -97 -40 -240 1 -168 15 -246 50 -274 21 -16
30 -18 54 -9 45 15 60 79 60 257 -1 155 -10 218 -38 257 -20 27 -63 32 -86 9z"/>
<path d="M111 2682 c-13 -2 -35 -17 -49 -34 -14 -17 -31 -36 -38 -43 -7 -7
-10 -15 -7 -19 4 -3 1 -6 -5 -6 -7 0 -11 -126 -12 -429 l-1 -429 24 -4 c29 -6
65 21 61 45 -1 9 2 17 7 17 6 0 7 6 3 12 -13 21 -12 49 3 79 14 28 25 34 75
43 41 7 44 10 83 87 43 84 48 136 18 199 -12 25 -24 56 -28 70 -4 14 -15 34
-25 45 -39 44 -51 109 -30 160 6 15 2 27 -15 45 -31 34 -56 95 -43 108 5 5 8
20 6 33 -2 19 -8 23 -27 21z"/>
<path d="M12018 2683 c-9 -17 -2 -107 9 -110 17 -6 25 14 26 65 0 35 -4 48
-15 50 -9 2 -18 -1 -20 -5z"/>
<path d="M8741 2614 c-12 -21 -31 -52 -43 -67 -16 -19 -20 -32 -13 -41 6 -7
24 -31 40 -54 17 -23 33 -41 38 -42 4 0 8 37 9 83 0 45 2 94 3 109 4 48 -12
54 -34 12z"/>
<path d="M14393 2445 c0 -22 2 -30 4 -17 2 12 2 30 0 40 -3 9 -5 -1 -4 -23z"/>
<path d="M12768 2402 c-46 -33 -47 -47 -5 -61 18 -6 49 -27 68 -47 47 -50 67
-56 106 -32 32 19 44 23 114 34 29 5 41 2 58 -15 27 -27 65 -14 87 32 9 19 24
33 36 34 11 1 26 8 35 14 13 11 12 14 -7 21 -12 4 -25 6 -30 3 -6 -4 -132 -14
-200 -17 -8 0 -34 -5 -57 -10 -37 -9 -47 -7 -78 12 -19 12 -33 26 -29 31 3 5
-2 9 -11 9 -10 0 -14 -5 -10 -12 3 -7 -2 -3 -11 10 -20 27 -20 27 -66 -6z m47
9 c3 -5 2 -12 -3 -15 -5 -3 -9 1 -9 9 0 17 3 19 12 6z"/>
<path d="M12363 2337 c-41 -68 -92 -81 -133 -33 -18 22 -33 20 -64 -10 -14
-15 -26 -22 -26 -16 0 5 -11 13 -25 16 -17 4 -23 11 -18 19 5 8 2 8 -9 -1 -14
-11 -17 -10 -23 8 -4 12 -11 17 -18 13 -7 -4 -20 -6 -31 -4 -10 1 -15 -2 -12
-7 3 -5 0 -15 -7 -21 -10 -8 -14 -7 -14 4 0 8 5 11 10 8 6 -3 7 -1 3 5 -11 18
-24 14 -31 -8 -7 -23 -25 -22 -43 3 -22 30 -29 19 -30 -45 -1 -85 -9 -185 -16
-196 -3 -5 3 -17 13 -26 14 -13 24 -14 44 -7 15 6 48 13 74 17 27 3 50 8 52
10 3 2 14 -2 25 -10 12 -7 40 -17 63 -20 48 -9 50 -13 48 -83 -1 -29 2 -53 6
-53 20 0 150 73 158 88 5 9 14 41 20 71 6 30 15 59 20 65 4 6 15 32 24 57 10
25 29 61 42 79 14 19 25 39 25 46 0 19 -31 46 -46 40 -8 -3 -18 4 -24 14 -16
30 -28 25 -57 -23z m37 -33 c11 -12 11 -15 -1 -12 -8 2 -13 -2 -12 -8 1 -6 -5
-11 -13 -11 -17 0 -18 19 -2 35 15 15 13 15 28 -4z"/>
<path d="M14387 2373 c-11 -10 -8 -43 3 -43 6 0 10 11 10 25 0 26 -2 29 -13
18z"/>
<path d="M3090 2280 c0 -24 15 -27 24 -4 9 22 8 24 -9 24 -8 0 -15 -9 -15 -20z"/>
<path d="M9910 2235 c-17 -20 -30 -155 -21 -221 4 -28 3 -62 -2 -75 -11 -30 2
-182 16 -191 6 -3 12 -12 13 -20 15 -95 15 -106 4 -113 -8 -5 -9 -24 -4 -62 6
-48 4 -56 -15 -69 -11 -8 -21 -22 -21 -30 0 -14 -10 -17 -40 -15 -34 2 -39
-14 -40 -129 -1 -63 1 -149 3 -190 2 -41 1 -84 -3 -94 -3 -10 -1 -51 6 -90 12
-68 11 -73 -12 -113 -23 -40 -25 -41 -64 -36 -32 4 -40 2 -40 -10 0 -16 20
-27 51 -27 11 0 31 -7 44 -16 13 -9 28 -13 34 -10 5 4 26 48 46 99 43 113 57
133 99 151 l33 14 -12 48 c-8 31 -9 60 -4 79 5 16 9 46 9 67 0 44 15 86 40
113 28 30 23 99 -7 103 -30 4 -35 22 -40 147 -3 66 -10 114 -17 120 -20 18
-47 65 -36 65 5 0 10 8 10 18 0 10 3 22 8 26 15 16 19 317 4 404 -10 62 -23
80 -42 57z"/>
<path d="M12654 2219 c-3 -6 -2 -15 3 -20 5 -5 9 -1 10 11 2 22 -2 25 -13 9z"/>
<path d="M10047 2213 c-12 -11 -8 -34 9 -50 21 -21 37 -4 28 31 -6 25 -23 34
-37 19z"/>
<path d="M11358 2148 c-14 -18 -28 -44 -33 -56 -6 -22 -5 -23 17 -16 12 4 41
7 63 6 57 -2 79 17 71 62 -7 35 -9 36 -50 36 -37 0 -47 -5 -68 -32z"/>
<path d="M7775 2127 c-12 -19 -13 -30 -5 -52 6 -16 9 -41 6 -57 -5 -31 -5 -31
74 -28 70 3 92 20 86 69 -3 20 -5 39 -5 43 -1 11 -58 36 -100 43 -35 6 -41 4
-56 -18z"/>
<path d="M3426 2087 c3 -12 14 -31 23 -42 10 -11 27 -36 38 -56 27 -48 64 -89
79 -89 6 0 17 -7 24 -15 7 -9 15 -13 18 -11 2 3 14 -1 26 -9 28 -20 30 -19 68
14 18 15 42 31 54 35 19 6 21 14 20 75 l-1 70 -65 12 c-36 7 -71 12 -77 12 -7
0 -13 4 -13 9 0 5 -5 6 -11 2 -22 -13 -79 -15 -112 -5 -68 23 -79 22 -71 -2z"/>
<path d="M10453 2041 c-18 -47 -40 -60 -103 -61 -41 0 -71 8 -120 31 -46 21
-71 28 -90 23 -14 -4 -35 -7 -48 -8 -35 -2 -42 -23 -41 -114 1 -52 -4 -88 -11
-98 -10 -11 -9 -18 4 -33 12 -14 17 -33 15 -63 -2 -24 0 -48 4 -54 8 -14 15
-50 29 -161 9 -67 9 -104 1 -139 -8 -33 -8 -55 -1 -67 12 -23 2 -198 -14 -242
-6 -16 -20 -40 -31 -52 l-20 -23 44 -20 c24 -11 49 -20 55 -20 6 0 17 -7 24
-16 23 -26 80 -44 144 -44 l62 0 18 120 c10 66 16 128 14 138 -3 11 -2 81 3
157 5 77 7 141 4 143 -2 3 -11 -1 -20 -8 -12 -10 -15 -10 -15 1 0 10 -3 10
-12 1 -18 -18 -25 -15 -30 13 -4 16 -1 22 6 18 6 -4 5 1 -3 11 -9 11 -15 46
-17 96 -1 43 -7 87 -13 97 -24 46 8 83 72 83 26 0 44 -6 53 -17 11 -17 13 -16
23 10 13 33 34 249 29 298 l-3 34 -12 -34z m-198 -259 c-3 -3 -11 0 -18 7 -9
10 -8 11 6 5 10 -3 15 -9 12 -12z m10 -22 c-3 -5 -1 -10 5 -10 6 0 8 -5 4 -11
-4 -8 -9 -7 -15 2 -12 19 -11 29 2 29 5 0 7 -4 4 -10z"/>
<path d="M13147 1913 c-4 -3 -7 -20 -7 -36 0 -22 4 -28 16 -23 9 3 24 6 34 6
17 0 17 2 4 30 -15 29 -33 38 -47 23z"/>
<path d="M14150 1842 c0 -5 7 -9 15 -9 8 0 12 4 9 9 -3 4 -9 8 -15 8 -5 0 -9
-4 -9 -8z"/>
<path d="M13407 1824 c-32 -17 -31 -24 7 -28 21 -3 25 1 24 20 -1 13 -3 24 -3
24 0 -1 -13 -8 -28 -16z"/>
<path d="M13365 1819 c-4 -6 -5 -12 -2 -15 2 -3 7 2 10 11 7 17 1 20 -8 4z"/>
<path d="M11144 1806 c1 -8 5 -18 8 -22 4 -3 5 1 4 10 -1 8 -5 18 -8 22 -4 3
-5 -1 -4 -10z"/>
<path d="M13328 1813 c7 -3 16 -2 19 1 4 3 -2 6 -13 5 -11 0 -14 -3 -6 -6z"/>
<path d="M11243 1795 c-7 -7 -9 -16 -6 -19 4 -3 1 -6 -5 -6 -6 0 -12 -15 -12
-32 0 -63 -5 -83 -24 -100 -10 -10 -26 -18 -35 -18 -14 0 -14 -2 -1 -10 9 -6
10 -10 3 -10 -14 0 -16 -103 -2 -132 5 -10 13 -27 19 -38 6 -13 6 -21 -1 -26
-13 -8 -2 -99 17 -136 8 -15 14 -54 14 -88 0 -73 17 -80 43 -16 10 24 25 47
33 50 10 4 14 21 14 56 0 59 14 92 35 84 17 -7 80 29 114 65 59 62 37 172 -31
146 -20 -8 -52 -65 -52 -95 -1 -15 -7 -25 -16 -25 -23 -1 -29 14 -16 46 9 25
7 41 -12 94 -13 39 -22 87 -22 124 0 36 -4 61 -11 61 -5 0 -8 4 -5 8 2 4 -3
13 -12 19 -13 7 -21 7 -29 -2z m115 -383 c9 -6 6 -12 -12 -20 -28 -12 -41 -5
-25 15 13 15 19 16 37 5z"/>
<path d="M14338 1805 c-3 -4 -14 -8 -25 -10 -22 -3 -19 -24 7 -42 12 -8 17
-23 16 -44 -2 -24 3 -33 25 -45 16 -8 31 -14 34 -14 3 0 5 35 3 78 -3 74 -4
77 -28 80 -14 2 -29 0 -32 -3z"/>
<path d="M9767 1736 c9 -28 15 -57 14 -63 -5 -46 2 -86 17 -91 15 -5 16 39 0
93 -6 22 -11 55 -12 74 -1 24 -6 35 -18 37 -15 2 -15 -2 -1 -50z"/>
<path d="M4485 1553 c4 -82 9 -151 13 -155 4 -4 7 63 7 148 1 121 -2 154 -12
154 -11 0 -12 -29 -8 -147z"/>
<path d="M7490 1685 c0 -8 2 -15 4 -15 2 0 6 7 10 15 3 8 1 15 -4 15 -6 0 -10
-7 -10 -15z"/>
<path d="M12629 1682 c-10 -2 -19 -11 -22 -22 -6 -23 27 -34 44 -14 6 8 8 14
3 15 -5 1 2 4 16 8 l25 7 -25 5 c-14 3 -32 3 -41 1z"/>
<path d="M13080 1639 c0 -6 -4 -8 -9 -5 -5 3 -15 -2 -22 -11 -12 -14 -12 -16
1 -9 8 4 3 -3 -12 -16 -16 -13 -28 -26 -28 -28 0 -11 143 0 156 11 8 6 23 12
34 13 32 2 28 21 -5 23 -16 1 -43 7 -60 14 -42 17 -55 19 -55 8z"/>
<path d="M51 1623 c-50 -10 -51 -16 -51 -254 l0 -223 40 40 c43 43 78 127 82
202 2 37 5 42 22 40 11 -2 26 -14 32 -26 7 -15 14 -20 19 -13 3 6 11 8 17 5 6
-4 17 1 24 11 12 15 10 24 -8 56 -18 33 -28 41 -60 47 -5 1 -16 10 -27 21 -10
10 -25 21 -32 23 -10 4 -11 9 -3 19 5 8 10 20 10 27 -1 12 -25 33 -36 30 -3 0
-16 -3 -29 -5z m93 -151 c2 -4 0 -14 -5 -22 -8 -13 -10 -13 -19 0 -5 8 -10 18
-10 23 0 10 28 9 34 -1z"/>
<path d="M570 1572 c-30 -24 -22 -68 12 -68 20 0 96 62 87 70 -2 2 -20 6 -40
10 -27 5 -42 2 -59 -12z"/>
<path d="M9790 1550 c0 -11 4 -20 9 -20 5 0 7 9 4 20 -3 11 -7 20 -9 20 -2 0
-4 -9 -4 -20z"/>
<path d="M3740 1528 c-18 -29 -18 -34 -5 -44 8 -6 15 -14 15 -18 0 -9 26 -36
34 -36 3 0 14 10 25 21 16 17 18 26 10 48 -10 24 -42 61 -54 61 -3 0 -14 -15
-25 -32z"/>
<path d="M13200 1549 c0 -5 5 -7 10 -4 6 3 10 8 10 11 0 2 -4 4 -10 4 -5 0
-10 -5 -10 -11z"/>
<path d="M7540 1526 c0 -14 5 -26 10 -26 6 0 10 9 10 19 0 11 -4 23 -10 26 -6
4 -10 -5 -10 -19z"/>
<path d="M12652 1521 c-7 -16 -13 -54 -12 -83 0 -29 0 -62 -2 -72 -2 -10 3
-21 10 -23 8 -3 12 6 12 26 0 17 12 50 26 73 22 34 25 46 17 72 -12 41 -35 44
-51 7z"/>
<path d="M280 1510 c-11 -7 -7 -19 20 -59 19 -27 38 -47 43 -44 5 3 5 8 0 12
-10 7 -11 26 -2 36 13 12 -3 44 -19 38 -9 -4 -13 -2 -9 4 9 14 -16 24 -33 13z"/>
<path d="M14271 1494 c-16 -21 -18 -29 -8 -45 19 -31 -4 -43 -80 -40 -84 2
-103 8 -103 29 -1 17 -77 72 -100 72 -17 0 -99 -80 -106 -104 -8 -23 -28 -46
-42 -46 -15 0 -22 -40 -11 -67 5 -13 9 -35 9 -48 0 -17 6 -23 23 -24 12 0 29
-1 37 -2 8 -1 25 1 37 5 16 5 28 1 43 -14 11 -11 38 -30 60 -41 54 -29 61 -39
50 -79 -12 -41 -6 -51 28 -48 33 2 68 -16 82 -42 6 -11 21 -20 33 -20 12 0 29
-4 37 -10 9 -5 19 -5 27 2 10 8 13 6 13 -6 0 -9 3 -16 6 -16 9 0 34 28 34 37
0 5 8 18 18 29 24 28 37 89 25 122 -6 15 -47 16 -74 1 -26 -13 -50 -5 -88 31
-17 17 -35 30 -40 30 -11 0 -20 22 -27 66 -4 25 0 35 16 47 19 13 20 18 10 37
-16 29 -8 34 34 20 23 -7 36 -18 38 -32 2 -13 20 -31 48 -46 25 -14 48 -29 51
-35 4 -5 16 -6 28 -2 20 6 21 13 21 107 0 99 0 100 -31 129 -39 36 -71 37 -98
3z m-304 -192 c10 -6 9 -13 -3 -30 -25 -36 -58 -9 -45 36 2 5 37 1 48 -6z"/>
<path d="M686 1422 c-34 -13 -37 -18 -32 -44 4 -21 2 -27 -7 -23 -6 4 -3 -1 8
-10 14 -12 31 -15 60 -11 80 10 85 12 89 43 5 28 -13 44 -34 33 -14 -8 -22 -6
-32 9 -12 17 -16 18 -52 3z"/>
<path d="M13677 1433 c-14 -13 -6 -33 12 -33 21 0 45 23 34 33 -8 9 -38 9 -46
0z"/>
<path d="M4230 1410 c-13 -9 -13 -11 -1 -19 12 -8 12 -12 2 -25 -11 -13 -11
-16 3 -16 9 0 16 5 16 10 0 6 9 10 20 10 11 0 20 5 20 11 0 5 4 7 10 4 6 -3 7
1 4 9 -3 9 -9 16 -13 17 -3 0 -15 2 -26 4 -11 2 -27 0 -35 -5z m55 -9 c3 -5 1
-12 -5 -16 -5 -3 -10 1 -10 9 0 18 6 21 15 7z"/>
<path d="M353 1385 c0 -9 7 -15 16 -13 19 4 18 22 -2 26 -7 2 -14 -4 -14 -13z"/>
<path d="M4135 1369 c-11 -16 -1 -19 13 -3 7 8 8 14 3 14 -5 0 -13 -5 -16 -11z"/>
<path d="M4490 1370 c0 -5 5 -10 11 -10 5 0 7 5 4 10 -3 6 -8 10 -11 10 -2 0
-4 -4 -4 -10z"/>
<path d="M4498 1328 c-2 -7 -1 -31 3 -53 6 -40 6 -39 8 13 1 51 -3 65 -11 40z"/>
<path d="M13003 1274 c3 -31 8 -59 12 -62 8 -9 54 50 55 70 0 23 -27 48 -52
48 -19 0 -20 -4 -15 -56z"/>
<path d="M524 1308 c-4 -7 -3 -8 4 -4 7 4 12 1 12 -8 0 -9 5 -17 10 -17 6 -1
14 -2 19 -3 5 0 12 -4 16 -8 8 -8 35 15 35 30 0 5 -11 12 -25 14 -16 3 -22 1
-18 -6 3 -6 0 -5 -8 2 -16 15 -36 16 -45 0z"/>
<path d="M13506 1291 c-8 -9 -18 -41 -21 -71 -10 -78 -12 -93 -20 -113 -4 -9
-2 -24 5 -32 10 -12 10 -19 -1 -32 -27 -34 -34 -38 -74 -40 -49 -2 -112 -10
-142 -19 -24 -7 -30 5 -12 23 8 8 4 23 -13 54 -13 24 -25 66 -28 93 -3 27 -10
51 -17 53 -13 5 -16 -7 -30 -97 -7 -48 -11 -55 -32 -58 -27 -4 -41 12 -41 48
0 22 -38 80 -53 80 -3 0 -11 -17 -18 -37 -16 -52 -31 -58 -46 -22 -20 49 -38
31 -36 -36 1 -46 5 -62 21 -74 14 -11 21 -30 23 -61 2 -25 9 -59 16 -76 7 -17
10 -34 7 -36 -4 -5 -42 -2 -89 6 -11 2 -26 -1 -32 -7 -7 -5 -13 -6 -13 -2 0 4
-6 3 -12 -3 -7 -5 -27 -12 -45 -15 -17 -3 -38 -9 -45 -13 -21 -14 -30 -12 -95
22 -69 36 -77 33 -78 -28 -1 -34 1 -37 32 -43 19 -3 45 -19 60 -36 15 -16 32
-28 38 -25 19 7 59 -29 49 -45 -5 -8 -7 -22 -5 -32 1 -10 -4 -24 -13 -30 -8
-7 -16 -25 -18 -40 -2 -15 -6 -26 -9 -25 -6 3 -38 -30 -62 -65 -12 -18 -13
-18 -32 0 -11 10 -32 34 -47 53 -14 19 -35 45 -47 57 -26 27 -27 71 -4 131 16
43 16 45 -2 58 -29 21 -39 17 -60 -23 -28 -55 -45 -73 -70 -73 -13 0 -27 -6
-33 -13 -15 -17 -38 -93 -46 -146 -7 -47 6 -66 65 -97 28 -14 71 -90 77 -134
2 -13 4 -25 5 -25 1 -1 31 -13 67 -27 65 -26 65 -26 101 -7 20 10 51 37 69 59
18 22 46 48 64 56 17 9 42 27 56 40 14 12 41 30 61 38 35 15 64 40 135 117 74
82 202 198 239 216 97 50 371 52 430 3 29 -24 0 -32 -56 -16 -76 23 -131 21
-147 -5 -7 -12 -11 -23 -8 -26 6 -7 162 -38 233 -48 28 -4 59 -2 68 3 15 8 13
12 -14 31 -33 24 -33 41 0 41 17 0 19 5 14 58 -4 33 -18 82 -35 117 -16 33
-31 68 -34 78 -4 13 -16 17 -50 17 -60 0 -72 20 -56 97 7 31 9 71 4 92 -4 20
-6 42 -5 48 3 18 -38 70 -60 76 -10 3 -25 -3 -33 -12z"/>
<path d="M815 1221 c-3 -5 -1 -12 4 -15 5 -3 11 1 15 9 6 16 -9 21 -19 6z"/>
<path d="M11911 1217 c-14 -18 -5 -44 20 -57 26 -14 29 -13 29 13 0 13 -8 31
-19 41 -15 14 -20 14 -30 3z"/>
<path d="M2653 1213 c-38 -5 -39 -11 -17 -56 18 -36 54 -74 54 -57 0 5 5 10
10 10 6 0 9 -4 8 -8 -4 -10 60 -66 84 -75 9 -3 19 0 22 9 3 8 12 14 21 14 26
0 17 16 -25 44 -22 14 -40 30 -40 35 0 5 -11 12 -25 15 -14 4 -31 18 -37 31
-6 14 -15 25 -20 25 -5 0 -6 5 -3 10 3 6 5 9 3 8 -2 0 -18 -3 -35 -5z"/>
<path d="M4496 1207 c3 -10 9 -15 12 -12 3 3 0 11 -7 18 -10 9 -11 8 -5 -6z"/>
<path d="M3749 1198 c0 -2 -2 -13 -3 -25 -4 -31 11 -29 16 2 3 14 1 25 -3 25
-5 0 -9 -1 -10 -2z"/>
<path d="M1476 1174 c-3 -9 -6 -43 -6 -77 0 -73 23 -119 72 -145 17 -9 42 -27
55 -40 23 -21 24 -26 17 -110 -8 -104 -20 -123 -78 -121 -23 1 -56 -6 -75 -14
-26 -11 -42 -12 -63 -5 -19 7 -38 6 -59 -1 -22 -8 -42 -7 -73 1 -24 6 -51 8
-62 4 -10 -4 -19 -6 -20 -4 0 2 -8 -3 -16 -10 -12 -10 -22 -9 -51 3 -43 18
-67 11 -67 -19 0 -57 -89 -87 -130 -44 -18 19 -22 20 -30 8 -5 -8 -10 -25 -10
-36 0 -12 -10 -34 -22 -49 -20 -25 -25 -27 -81 -22 -40 3 -69 12 -89 27 -24
18 -38 21 -72 16 -135 -20 -152 -27 -162 -69 -5 -22 -15 -33 -43 -44 -33 -13
-38 -19 -38 -49 0 -40 -24 -70 -64 -79 -49 -11 -66 1 -65 42 1 31 7 41 36 61
20 14 44 22 57 19 13 -2 23 -2 23 0 0 3 -22 25 -50 50 -27 25 -50 49 -50 55 0
5 -8 22 -19 36 -10 15 -23 43 -29 63 -18 68 -105 136 -185 145 l-27 4 1 -263
c1 -144 4 -253 7 -242 13 39 29 57 48 53 15 -3 19 -12 20 -53 1 -57 17 -103
39 -111 21 -8 19 -52 -5 -97 -11 -20 -20 -41 -20 -47 0 -6 58 -10 155 -10 128
0 160 3 181 16 22 15 181 65 254 81 14 3 33 12 43 21 14 12 17 13 17 1 0 -12
2 -12 9 1 6 8 7 18 5 22 -3 4 0 8 5 8 10 0 15 -13 13 -31 -1 -3 22 -2 51 3 29
6 108 8 177 6 141 -5 198 -22 277 -83 52 -40 63 -43 63 -17 1 14 3 14 19 -5
12 -15 30 -23 50 -23 25 0 35 7 56 40 14 22 28 40 30 40 3 0 19 -14 36 -31 17
-18 34 -27 38 -22 3 5 14 12 24 16 10 4 23 20 28 37 13 36 19 37 67 6 61 -39
100 -47 157 -33 48 13 50 15 50 48 0 29 4 35 25 37 14 2 29 10 33 18 4 8 17
14 27 14 11 0 24 9 30 20 6 11 23 23 38 26 15 4 44 15 64 25 21 11 46 19 56
19 10 0 37 18 60 40 22 22 45 40 51 40 14 0 41 -41 41 -61 0 -29 -88 -83 -210
-129 -19 -7 -41 -20 -47 -28 -46 -56 -66 -72 -89 -72 -27 0 -84 -29 -84 -42 0
-4 68 -8 150 -8 143 0 150 1 150 20 0 26 27 26 35 0 6 -18 15 -20 78 -19 50 0
66 3 52 9 -16 7 -13 9 18 9 20 1 37 -4 37 -10 0 -14 369 -5 435 11 74 18 257
16 333 -4 44 -11 106 -16 203 -16 l139 0 0 28 c0 15 -7 35 -15 45 -14 20 -10
39 29 142 8 22 15 54 16 71 0 26 -5 34 -32 45 -18 7 -38 19 -43 26 -6 8 -22
20 -35 27 -16 7 -24 19 -22 32 1 10 4 37 7 59 8 65 11 80 18 92 9 15 -1 60
-20 91 -8 13 -21 76 -28 140 -17 150 -20 161 -46 188 -16 17 -32 22 -65 22
-49 0 -53 -7 -31 -61 7 -18 15 -57 16 -87 2 -30 8 -61 14 -69 10 -12 9 -13 -3
-6 -12 6 -13 5 -2 -6 14 -16 16 -49 2 -49 -13 0 -70 -100 -70 -123 0 -10 -9
-36 -20 -57 -11 -22 -19 -45 -18 -52 2 -7 -13 -20 -32 -30 -19 -9 -40 -22 -47
-27 -8 -7 -13 -6 -15 4 -3 12 -7 12 -33 1 -54 -24 -123 -47 -137 -45 -27 3
-36 -1 -41 -21 -3 -13 -14 -20 -28 -20 -21 0 -21 1 -5 19 13 15 14 20 4 23
-11 4 -10 8 1 21 11 15 11 17 -2 17 -8 0 -22 -16 -31 -35 -9 -19 -21 -35 -25
-35 -4 0 -20 -11 -35 -25 -28 -26 -32 -25 -103 8 -23 11 -32 37 -12 37 10 0 6
95 -6 156 -6 30 -47 46 -73 29 -29 -21 -35 -56 -11 -62 10 -3 16 -9 13 -14 -7
-12 21 -51 31 -41 5 4 5 2 1 -5 -3 -6 -2 -15 4 -18 8 -5 7 -11 -1 -21 -9 -11
-8 -14 5 -14 9 0 16 -8 16 -20 0 -11 -5 -20 -11 -20 -5 0 -8 -4 -4 -9 10 -17
-32 -33 -54 -21 -24 12 -37 48 -23 62 7 7 4 16 -9 29 -23 23 -34 63 -24 86 14
31 -5 71 -26 57 -15 -9 -100 25 -118 48 -15 18 -30 23 -68 24 -63 2 -61 1 -68
23 -5 18 -14 19 -93 15 l-88 -4 -18 30 c-10 17 -26 30 -37 30 -10 0 -28 5 -38
11 -25 17 -68 3 -87 -27 -15 -23 -16 -34 -5 -105 13 -88 3 -149 -26 -149 -14
0 -15 -15 -10 -112 4 -62 9 -143 13 -180 7 -65 6 -68 -19 -79 -49 -22 -53 -10
-54 218 -1 114 -5 260 -9 323 -3 63 -6 152 -6 197 0 98 -23 211 -49 237 -17
18 -63 31 -54 15 3 -4 -4 -9 -15 -12 -19 -5 -34 23 -43 81 -2 13 -10 28 -18
33 -23 14 -66 10 -73 -7z m1922 -809 c-3 -3 -13 -2 -22 1 -14 5 -15 9 -4 15
13 8 36 -6 26 -16z m-928 -49 c0 -2 -7 -7 -16 -10 -8 -3 -12 -2 -9 4 6 10 25
14 25 6z m750 0 c0 -2 3 -11 6 -20 4 -11 0 -14 -16 -11 -28 5 -34 11 -25 24 6
10 35 16 35 7z m-700 -26 c-20 -13 -40 -13 -40 0 0 6 12 10 28 10 21 0 24 -2
12 -10z m-938 -62 c28 -33 29 -60 5 -83 -7 -7 -7 -5 -2 4 6 11 4 13 -8 8 -9
-3 -22 -1 -29 6 -15 14 -43 16 -55 3 -4 -5 -3 -6 3 -3 7 4 11 -4 10 -23 -1
-35 -22 -48 -29 -19 -4 15 -12 19 -30 15 -21 -4 -26 0 -31 27 -5 24 -9 29 -16
17 -5 -8 -7 -17 -5 -20 2 -4 -3 -7 -11 -7 -10 0 -11 4 -4 11 5 5 10 18 10 27
0 10 4 20 9 23 15 10 43 -6 37 -21 -4 -11 -1 -11 14 -3 11 6 20 15 20 21 0 6
7 3 16 -5 16 -16 39 -12 29 4 -7 11 16 50 30 50 5 0 22 -15 37 -32z m-724 -73
c4 -5 2 -5 -5 -2 -6 4 -13 2 -15 -3 -5 -17 -58 -23 -58 -7 0 8 2 16 4 18 7 7
66 3 74 -6z m-578 -15 c-13 -8 -13 -10 2 -10 11 0 15 -5 12 -14 -3 -8 -1 -17
5 -21 7 -4 4 -14 -9 -27 -11 -12 -17 -24 -15 -28 3 -5 -2 -11 -11 -14 -12 -5
-15 -2 -10 10 5 14 4 15 -8 5 -19 -16 -44 -4 -48 22 -2 14 -10 21 -21 21 -23
-2 -22 5 10 38 21 22 36 28 67 28 30 0 37 -3 26 -10z m430 -14 c0 -2 -7 -7
-16 -10 -8 -3 -12 -2 -9 4 6 10 25 14 25 6z m2060 -46 c0 -5 -9 -10 -20 -10
-11 0 -20 5 -20 10 0 6 9 10 20 10 11 0 20 -4 20 -10z m-1420 -20 c0 -5 -2
-10 -4 -10 -3 0 -8 5 -11 10 -3 6 -1 10 4 10 6 0 11 -4 11 -10z m1300 0 c0 -5
-7 -10 -15 -10 -8 0 -15 5 -15 10 0 6 7 10 15 10 8 0 15 -4 15 -10z m-345 -40
c3 -5 -1 -10 -10 -10 -9 0 -13 5 -10 10 3 6 8 10 10 10 2 0 7 -4 10 -10z"/>
<path d="M1457 169 c7 -7 15 -10 18 -7 3 3 -2 9 -12 12 -14 6 -15 5 -6 -5z"/>
<path d="M4503 1100 c0 -30 2 -43 4 -27 2 15 2 39 0 55 -2 15 -4 2 -4 -28z"/>
<path d="M12630 1125 c-14 -17 -23 -67 -24 -135 -1 -44 0 -45 29 -42 16 2 35
8 41 13 6 5 24 10 39 11 31 3 51 28 59 74 7 36 -4 49 -51 58 -17 4 -37 14 -44
22 -15 18 -33 18 -49 -1z"/>
<path d="M2920 1085 c-7 -9 -19 -14 -26 -11 -18 7 -36 -18 -23 -31 7 -7 1 -9
-18 -8 -22 1 -29 -3 -29 -17 0 -14 7 -18 32 -16 24 1 38 -4 51 -21 15 -18 25
-22 42 -16 44 14 52 82 15 119 -19 20 -28 20 -44 1z"/>
<path d="M12216 1081 c-3 -5 1 -11 9 -15 15 -6 29 7 18 18 -9 9 -21 8 -27 -3z"/>
<path d="M1768 1048 c-6 -40 -1 -210 7 -257 6 -29 8 -32 20 -20 14 14 20 82
12 129 -3 14 -5 60 -6 103 -1 58 -4 77 -15 77 -7 0 -15 -14 -18 -32z"/>
<path d="M12224 1037 c-27 -14 -26 -13 -30 -44 -6 -59 55 -113 118 -104 10 1
28 -4 40 -10 24 -13 37 -17 75 -21 12 -1 19 -6 17 -10 -3 -4 2 -18 11 -30 l17
-23 -5 30 c-9 56 -15 73 -41 114 -20 31 -36 43 -68 52 -24 7 -50 17 -58 23
-39 28 -57 34 -76 23z"/>
<path d="M1883 961 c-12 -37 -9 -70 6 -72 3 0 13 -2 22 -4 31 -6 38 9 31 60
-6 39 -11 51 -27 53 -16 2 -23 -6 -32 -37z"/>
<path d="M13857 903 c-11 -11 -8 -20 7 -20 8 0 12 6 9 14 -6 15 -7 15 -16 6z"/>
<path d="M14270 835 c-10 -12 -10 -15 3 -15 19 0 31 16 18 24 -5 3 -14 -1 -21
-9z"/>
<path d="M9453 824 c-21 -9 -15 -29 16 -47 33 -19 69 -22 91 -6 11 8 12 12 2
16 -7 2 -19 11 -27 19 -15 16 -63 26 -82 18z"/>
<path d="M12128 757 c-14 -14 -34 -27 -44 -31 -11 -3 -26 -23 -34 -44 -16 -45
-20 -86 -6 -72 6 6 18 10 28 10 27 0 123 65 134 91 26 59 -32 92 -78 46z"/>
<path d="M13957 723 c-4 -23 -3 -57 2 -93 1 -3 9 -6 19 -7 9 0 37 -5 62 -10
50 -10 111 -3 111 12 1 17 -27 29 -47 20 -35 -15 -45 -14 -40 3 6 20 -65 102
-88 102 -8 0 -17 -12 -19 -27z"/>
<path d="M4510 450 c-3 -215 -5 -245 -7 -123 -3 156 -4 161 -24 156 -11 -3
-47 0 -81 7 -46 10 -75 24 -113 55 -68 56 -78 60 -160 75 -38 7 -92 19 -120
27 -27 9 -94 18 -147 21 -95 4 -99 4 -154 -28 -56 -31 -99 -35 -115 -9 -3 5
-22 12 -41 15 -35 6 -36 6 -43 -35 -8 -49 0 -92 27 -137 11 -19 16 -34 12 -34
-4 0 -1 -6 7 -12 14 -12 36 -69 43 -108 6 -40 40 -126 53 -137 13 -10 20 -9
37 2 11 8 31 15 44 15 13 0 32 4 42 10 21 11 59 13 118 5 23 -3 41 -2 40 2 -1
4 3 18 10 30 11 19 16 21 32 11 10 -7 21 -20 23 -30 5 -17 34 -23 94 -18 12 0
35 -6 52 -14 16 -9 52 -21 78 -26 32 -7 61 -22 85 -45 20 -19 41 -35 47 -35 6
0 11 -4 11 -10 0 -5 7 -7 15 -4 8 3 14 9 13 12 -5 24 50 105 64 96 6 -4 9 -3
6 2 -3 5 3 18 13 28 19 19 19 19 21 -30 0 -27 1 -54 1 -61 0 -6 6 -9 13 -6 11
4 14 -8 14 -56 0 -39 4 -61 11 -61 12 0 6 355 -10 615 -7 106 -8 86 -11 -165z"/>
<path d="M8513 689 c-6 -33 -24 -44 -85 -54 -48 -7 -48 -24 -3 -64 40 -35 48
-36 96 -19 19 7 79 21 134 33 89 18 100 22 97 40 -2 11 -4 26 -4 32 -1 7 -3
11 -6 9 -2 -2 -12 3 -23 12 -11 9 -23 17 -27 18 -4 0 -14 4 -23 8 -9 4 -32 5
-53 3 -20 -2 -39 0 -42 4 -3 5 -16 9 -30 9 -19 0 -26 -6 -31 -31z"/>
<path d="M8890 702 c0 -10 -4 -22 -9 -27 -12 -13 -16 -56 -6 -77 9 -22 31 -23
38 -4 8 21 -4 126 -14 126 -5 0 -9 -8 -9 -18z"/>
<path d="M10314 655 c-3 -8 -14 -17 -25 -20 -50 -16 -69 -75 -24 -75 36 0 65
33 65 75 0 37 -7 45 -16 20z"/>
<path d="M11964 647 c4 -37 15 -50 32 -37 11 10 11 16 -3 36 -20 30 -32 31
-29 1z"/>
<path d="M13235 660 c3 -5 1 -10 -6 -10 -10 0 -10 -3 -1 -12 8 -8 15 -8 27 2
21 17 19 30 -6 30 -11 0 -17 -4 -14 -10z"/>
<path d="M13387 656 c-7 -8 -29 -21 -47 -30 -38 -19 -174 -156 -164 -165 3 -3
10 2 15 12 6 9 16 17 23 17 7 0 34 11 60 25 51 27 126 42 126 25 0 -5 5 -10
10 -10 7 0 7 6 1 19 -11 20 -5 31 17 31 8 0 23 11 34 25 21 26 68 35 68 12 0
-7 29 -28 65 -47 64 -33 136 -104 153 -151 l9 -23 6 24 c5 19 -2 31 -33 60
-22 20 -40 41 -40 46 0 12 -36 36 -74 49 -16 5 -31 15 -33 22 -8 24 36 23 96
-3 49 -21 61 -31 58 -45 -4 -15 1 -17 44 -14 42 3 99 30 99 48 0 9 -54 18
-115 18 -33 1 -86 9 -118 20 -31 11 -85 22 -120 25 -34 3 -77 9 -95 14 -23 6
-36 5 -45 -4z"/>
<path d="M8056 629 c-24 -19 -36 -49 -18 -49 16 0 50 30 55 50 7 25 -3 25 -37
-1z"/>
<path d="M14326 573 c-16 -3 -38 -13 -49 -24 -11 -10 -30 -19 -41 -19 -14 0
-26 -12 -36 -33 -8 -17 -30 -42 -49 -54 -37 -25 -63 -31 -43 -11 17 17 15 58
-3 58 -8 0 -15 4 -15 10 0 5 -11 12 -25 16 -14 3 -25 11 -25 18 0 15 -40 18
-57 4 -7 -5 -20 -8 -28 -4 -14 5 -55 -28 -55 -44 0 -4 27 -24 60 -44 34 -21
70 -47 81 -59 l20 -22 19 25 c16 21 18 22 17 6 -2 -23 -45 -72 -59 -68 -5 1
-7 -1 -4 -6 3 -5 -1 -18 -10 -28 -14 -18 -15 -18 -8 6 l7 24 -34 -25 c-19 -14
-51 -35 -72 -47 l-37 -22 -72 48 c-116 77 -184 107 -223 100 -14 -3 -56 5 -93
17 -66 22 -67 22 -70 3 -4 -24 -29 -35 -45 -19 -6 6 -37 11 -69 11 -41 0 -60
4 -64 14 -6 16 -51 12 -99 -9 -16 -7 -52 -16 -80 -20 -27 -4 -61 -14 -75 -23
-14 -9 -32 -16 -40 -17 -8 0 -14 -6 -12 -13 1 -8 -2 -11 -7 -8 -5 4 -12 2 -15
-3 -7 -10 92 -51 134 -56 14 -1 30 2 37 7 17 14 93 -1 100 -19 5 -14 8 -13 20
3 7 10 19 19 26 20 6 1 29 4 49 8 30 5 36 3 32 -9 -7 -18 7 -20 24 -3 9 9 12
6 12 -14 0 -23 4 -26 23 -22 12 3 33 8 47 11 l25 4 -23 -20 c-25 -22 -22 -40
6 -40 25 0 131 -17 136 -22 2 -2 -2 -19 -9 -36 -17 -39 -36 -42 -103 -13 -112
47 -369 66 -487 35 -76 -19 -155 -64 -177 -100 -24 -40 -23 -52 4 -29 19 17
21 17 15 1 -6 -16 12 -17 301 -16 325 0 336 3 177 40 -149 34 -259 35 -395 2
l-25 -6 28 25 c39 36 110 51 251 52 122 1 193 -14 236 -50 8 -7 40 -24 70 -38
l55 -26 356 0 355 0 92 60 92 61 0 229 0 230 -22 -1 c-13 -1 -36 -4 -52 -6z
m-686 -478 c-7 -9 -10 -18 -7 -22 9 -8 -24 -32 -45 -33 -26 0 -22 34 5 53 12
9 30 16 41 16 15 1 16 -1 6 -14z"/>
<path d="M9507 514 c-4 -4 -4 -10 -2 -14 6 -9 54 0 61 11 6 10 -49 12 -59 3z"/>
<path d="M13417 505 c-4 -11 -11 -30 -17 -42 -6 -15 -6 -23 1 -23 12 0 31 48
26 69 -2 13 -4 12 -10 -4z"/>
<path d="M10974 485 c-49 -7 -100 -16 -112 -19 -42 -14 -22 -26 41 -25 34 1
82 -4 105 -11 37 -9 47 -9 68 5 28 18 30 59 4 61 -8 1 -56 -4 -106 -11z"/>
<path d="M9468 438 c-30 -10 -37 -38 -15 -55 34 -27 217 -70 217 -51 0 4 -5 8
-10 8 -6 0 -19 14 -29 31 -13 22 -37 39 -78 55 -32 13 -58 24 -58 23 0 0 -12
-5 -27 -11z"/>
<path d="M10568 400 c-26 -11 -69 -22 -95 -25 -58 -8 -182 -67 -212 -101 -19
-22 -19 -25 -5 -31 9 -3 37 1 63 10 26 9 94 18 160 20 90 4 117 8 130 22 15
16 14 17 -12 11 -39 -9 -97 3 -91 19 6 14 119 75 140 75 8 0 14 5 14 10 0 15
-40 11 -92 -10z"/>
<path d="M13829 393 c5 -10 21 -29 35 -42 l25 -24 12 27 c11 23 10 28 -7 41
-10 8 -32 15 -47 15 -23 0 -26 -3 -18 -17z"/>
<path d="M2531 391 c-12 -8 -10 -12 11 -22 28 -12 58 -7 58 11 0 6 -4 9 -9 5
-5 -3 -12 -1 -16 5 -8 12 -25 13 -44 1z"/>
<path d="M12232 312 c-20 -3 -22 -7 -16 -35 9 -45 11 -47 49 -47 25 0 35 -5
40 -20 9 -27 29 -25 45 5 12 23 12 28 -6 44 -33 31 -88 57 -112 53z"/>
<path d="M12995 233 c-8 -23 -8 -23 40 -23 25 0 45 5 45 11 0 5 -4 8 -9 4 -5
-3 -15 1 -23 8 -17 18 -46 17 -53 0z"/>
<path d="M9816 224 c-7 -19 20 -67 33 -59 9 5 5 -70 -4 -85 -22 -36 59 -53
103 -22 15 11 50 31 77 45 53 26 129 93 116 102 -5 2 -11 1 -15 -2 -7 -8 -5
-7 -106 -28 -92 -18 -90 -18 -90 0 0 8 -4 15 -10 15 -5 0 -10 6 -10 13 0 15
-41 37 -69 37 -11 0 -22 -7 -25 -16z"/>
<path d="M13120 230 c0 -5 10 -10 23 -10 18 0 19 2 7 10 -19 13 -30 13 -30 0z"/>
<path d="M10720 133 c-8 -3 -24 -8 -35 -12 -11 -5 -85 -30 -165 -56 -166 -54
-189 -64 -145 -65 71 0 281 52 348 87 37 20 66 37 65 39 -7 6 -54 11 -68 7z"/>
<path d="M8748 76 c-24 -12 -54 -29 -68 -39 -13 -9 -34 -17 -45 -17 -11 0 -27
-5 -35 -10 -17 -12 140 -7 200 5 47 10 58 20 53 49 -7 33 -51 38 -105 12z"/>
<path d="M12402 76 c-43 -22 -62 -40 -62 -63 0 -17 80 -17 100 0 34 27 42 45
30 66 -13 25 -13 25 -68 -3z"/>
<path d="M10215 22 l-30 -17 49 -3 c56 -4 69 4 42 24 -24 17 -24 17 -61 -4z"/>
<path d="M12530 25 c-17 -20 -9 -27 25 -23 27 3 27 3 8 21 -18 16 -21 16 -33
2z"/>
<path d="M8268 3 c7 -3 16 -2 19 1 4 3 -2 6 -13 5 -11 0 -14 -3 -6 -6z"/>
<path d="M8938 3 c6 -2 18 -2 25 0 6 3 1 5 -13 5 -14 0 -19 -2 -12 -5z"/>
</g>
</svg>
