<?xml version="1.0" standalone="no"?>
<!DOCTYPE svg PUBLIC "-//W3C//DTD SVG 20010904//EN"
 "http://www.w3.org/TR/2001/REC-SVG-20010904/DTD/svg10.dtd">
<svg version="1.0" xmlns="http://www.w3.org/2000/svg"
 width="597.000000pt" height="517.000000pt" viewBox="0 0 597.000000 517.000000"
 preserveAspectRatio="xMidYMid meet">

<g transform="translate(0.000000,517.000000) scale(0.100000,-0.100000)"
fill="#000000" stroke="none">
<path d="M2778 4793 c6 -2 18 -2 25 0 6 3 1 5 -13 5 -14 0 -19 -2 -12 -5z"/>
<path d="M2799 4770 c-103 -13 -197 -78 -238 -163 -11 -23 -25 -73 -31 -112
-7 -48 -9 -669 -8 -1960 3 -1847 3 -1891 23 -1944 27 -75 102 -152 175 -177
52 -18 93 -19 850 -19 599 0 805 3 835 12 96 29 173 105 208 203 9 27 12 443
13 1890 0 1020 -3 1898 -6 1950 -14 193 -102 295 -277 320 -79 11 -1460 11
-1544 0z m1628 -98 c51 -27 90 -76 109 -138 16 -55 20 -239 4 -229 -5 3 -10 0
-11 -7 0 -10 -2 -10 -6 0 -2 6 -9 10 -14 6 -5 -3 -9 0 -9 5 0 6 -22 22 -48 35
-44 22 -162 137 -162 157 0 5 -6 9 -12 9 -7 0 -21 10 -31 23 -46 59 -87 118
-87 126 0 5 -8 17 -17 26 -15 16 -8 17 113 13 109 -3 135 -7 171 -26z m-875
-1209 c13 -11 38 -23 57 -27 51 -9 134 -82 167 -146 15 -30 34 -61 41 -68 7
-7 17 -32 23 -55 6 -23 24 -70 41 -104 31 -62 33 -103 5 -103 -8 0 -15 -17
-18 -44 -3 -25 -22 -77 -43 -117 -36 -69 -37 -76 -31 -138 4 -36 14 -87 23
-114 21 -66 14 -280 -10 -318 -10 -14 -14 -29 -10 -32 3 -4 -1 -15 -9 -24 -9
-10 -26 -40 -38 -68 -40 -88 -90 -138 -147 -148 -10 -2 -36 -14 -58 -28 -77
-50 -193 -46 -260 7 -63 50 -105 94 -105 109 0 8 -6 18 -14 22 -30 18 -80 169
-92 278 -22 201 -11 554 21 659 8 27 15 64 15 81 0 19 8 39 19 49 11 10 17 24
14 32 -3 8 2 25 11 39 9 13 16 31 16 39 0 8 3 16 8 18 4 2 18 23 31 47 37 69
70 106 126 142 56 37 62 39 132 36 46 -2 68 -8 85 -24z m989 -323 c9 -34 9
-651 1 -670 -5 -13 -27 -16 -97 -18 -99 -3 -158 10 -222 48 -54 32 -67 64 -60
143 l5 62 -43 35 c-43 36 -75 81 -75 106 0 8 -7 17 -15 20 -11 5 -14 21 -12
69 2 50 8 69 30 98 15 20 40 40 55 43 15 4 41 14 57 22 17 9 35 17 42 18 6 1
23 13 37 26 24 22 33 23 158 23 l133 0 6 -25z m-1097 -1841 c61 -27 109 -76
125 -128 13 -45 14 -42 -34 -99 -31 -38 -137 -141 -204 -201 -33 -30 -58 -57
-56 -61 2 -4 -7 -13 -20 -20 -13 -7 -22 -17 -19 -22 3 -4 -1 -8 -8 -8 -7 0
-78 -65 -156 -145 l-144 -145 -57 0 c-104 0 -182 36 -225 103 -11 16 -12 34
-7 65 5 23 6 42 3 42 -2 0 0 6 6 13 5 6 13 28 17 47 4 19 20 58 36 87 16 29
26 53 24 53 -3 0 6 17 20 37 14 21 25 41 25 46 0 15 93 142 136 184 23 24 44
46 46 50 4 11 108 79 131 87 11 3 42 9 69 12 28 4 62 10 77 14 54 17 166 11
215 -11z"/>
<path d="M2594 4698 l-29 -33 33 29 c17 17 32 31 32 33 0 8 -8 1 -36 -29z"/>
<path d="M1552 4595 c-43 -36 -72 -102 -72 -161 1 -153 152 -256 288 -194 46
21 55 32 20 22 -19 -4 -16 1 14 30 91 85 88 212 -7 284 -42 32 -131 44 -186
25 -27 -9 -30 -9 -19 4 20 24 -5 18 -38 -10z"/>
<path d="M2075 4356 c-40 -18 -83 -62 -101 -104 -52 -124 65 -269 200 -248
120 19 192 157 137 264 -23 46 -46 67 -94 87 -44 18 -102 19 -142 1z"/>
<path d="M1605 4131 c-43 -19 -100 -78 -116 -118 -16 -42 -11 -131 10 -171 58
-113 199 -151 304 -81 58 38 87 95 87 170 0 159 -148 263 -285 200z"/>
<path d="M2095 3885 c-32 -31 -34 -86 -5 -115 33 -33 85 -30 119 7 18 21 22
34 17 62 -11 69 -84 94 -131 46z"/>
<path d="M1343 905 c0 -27 2 -38 4 -22 2 15 2 37 0 50 -2 12 -4 0 -4 -28z"/>
<path d="M1342 785 c0 -16 2 -22 5 -12 2 9 2 23 0 30 -3 6 -5 -1 -5 -18z"/>
<path d="M1360 599 c0 -17 34 -75 64 -108 28 -31 106 -81 125 -81 9 1 -3 10
-26 21 -59 29 -108 76 -138 133 -14 27 -25 43 -25 35z"/>
<path d="M2560 510 c0 -9 76 -79 106 -97 15 -9 -97 -12 -516 -14 l-535 -3 560
-7 c308 -3 583 -9 610 -13 44 -5 41 -4 -20 12 -79 20 -113 40 -167 93 -21 21
-38 34 -38 29z"/>
<path d="M1578 403 c7 -3 16 -2 19 1 4 3 -2 6 -13 5 -11 0 -14 -3 -6 -6z"/>
</g>
</svg>
