<?xml version="1.0" standalone="no"?>
<!DOCTYPE svg PUBLIC "-//W3C//DTD SVG 20010904//EN"
 "http://www.w3.org/TR/2001/REC-SVG-20010904/DTD/svg10.dtd">
<svg version="1.0" xmlns="http://www.w3.org/2000/svg"
 width="61.000000pt" height="61.000000pt" viewBox="0 0 61.000000 61.000000"
 preserveAspectRatio="xMidYMid meet">

<g transform="translate(0.000000,61.000000) scale(0.100000,-0.100000)"
fill="#000000" stroke="none">
<path d="M48 473 l-46 -48 6 -165 7 -165 48 -3 c28 -2 47 1 47 7 0 6 -16 11
-35 11 l-35 0 0 94 0 93 39 -1 c26 0 47 6 60 18 19 17 23 18 39 4 31 -28 60
-31 95 -11 31 19 33 19 62 1 33 -20 69 -17 98 9 15 15 19 14 38 -3 13 -12 34
-18 60 -18 l39 1 0 -93 c0 -76 -3 -94 -15 -94 -11 0 -15 18 -17 78 l-3 77 -97
3 -98 3 0 -81 0 -80 -35 0 c-19 0 -35 -5 -35 -10 0 -7 56 -10 163 -8 l162 3 7
165 6 165 -46 48 -46 47 -118 0 c-72 0 -118 -4 -118 -10 0 -6 44 -10 113 -10
l113 0 34 -35 34 -35 -269 0 -269 0 34 35 c32 33 37 35 102 35 39 0 68 4 68
10 0 6 -31 10 -73 10 l-73 0 -46 -47z m542 -86 c0 -12 -7 -33 -16 -45 -12 -18
-24 -22 -52 -20 -31 2 -39 9 -51 36 -16 34 -31 42 -31 15 0 -26 -31 -53 -61
-53 -29 0 -59 23 -59 45 0 27 -20 26 -31 -2 -12 -33 -26 -43 -58 -43 -30 0
-61 26 -61 52 0 28 -15 21 -31 -14 -12 -27 -20 -34 -51 -36 -28 -2 -40 2 -52
20 -9 12 -16 33 -16 45 l0 23 285 0 285 0 0 -23z m-160 -207 l0 -70 -35 0 -35
0 0 70 0 70 35 0 35 0 0 -70z m80 0 l0 -70 -30 0 -30 0 0 70 0 70 30 0 30 0 0
-70z"/>
<path d="M76 221 c-3 -5 3 -11 14 -14 12 -3 20 -14 20 -25 0 -46 9 -52 76 -52
60 0 65 2 74 26 19 49 15 54 -50 54 -33 0 -60 -4 -60 -10 0 -5 21 -10 46 -10
38 0 45 -3 42 -17 -2 -14 -15 -19 -50 -21 -45 -3 -48 -1 -54 25 -3 15 -7 34
-10 41 -4 14 -40 16 -48 3z"/>
<path d="M135 111 c-3 -5 -1 -12 5 -16 12 -7 30 2 30 16 0 12 -27 12 -35 0z"/>
<path d="M210 105 c0 -8 7 -15 15 -15 8 0 15 7 15 15 0 8 -7 15 -15 15 -8 0
-15 -7 -15 -15z"/>
</g>
</svg>
