<?xml version="1.0" standalone="no"?>
<!DOCTYPE svg PUBLIC "-//W3C//DTD SVG 20010904//EN"
 "http://www.w3.org/TR/2001/REC-SVG-20010904/DTD/svg10.dtd">
<svg version="1.0" xmlns="http://www.w3.org/2000/svg"
 width="61.000000pt" height="61.000000pt" viewBox="0 0 61.000000 61.000000"
 preserveAspectRatio="xMidYMid meet">

<g transform="translate(0.000000,61.000000) scale(0.100000,-0.100000)"
fill="#000000" stroke="none">
<path d="M147 603 c-3 -5 -5 -46 -5 -92 -1 -82 -2 -86 -32 -114 l-30 -28 2
-182 3 -182 99 -3 c64 -2 103 1 112 9 11 9 14 48 14 181 l0 170 -32 33 c-23
22 -33 42 -34 64 0 17 -1 58 -2 91 l-2 60 -44 0 c-25 0 -47 -3 -49 -7z m61
-20 c-10 -2 -26 -2 -35 0 -10 3 -2 5 17 5 19 0 27 -2 18 -5z m12 -33 c0 -5
-13 -10 -30 -10 -16 0 -30 5 -30 10 0 6 14 10 30 10 17 0 30 -4 30 -10z m4
-46 c11 -29 6 -34 -29 -34 -31 0 -35 3 -35 25 0 21 5 25 29 25 17 0 31 -6 35
-16z m3 -68 c-3 -8 9 -27 29 -45 19 -17 34 -36 34 -41 0 -6 -29 -10 -65 -10
-37 0 -65 -4 -65 -10 0 -6 28 -10 65 -10 l65 0 0 -130 0 -130 -95 0 -95 0 0
130 c0 109 2 130 15 130 8 0 15 5 15 10 0 6 -7 10 -15 10 -25 0 -17 27 15 50
17 12 30 30 30 41 0 15 7 19 36 19 27 0 35 -4 31 -14z m63 -406 c0 -6 -38 -10
-95 -10 -57 0 -95 4 -95 10 0 6 38 10 95 10 57 0 95 -4 95 -10z"/>
<path d="M184 304 c-5 -1 -21 -5 -36 -8 -29 -7 -36 -24 -17 -43 8 -8 20 -8 35
-3 13 5 36 5 53 0 36 -10 62 10 42 34 -11 13 -56 25 -77 20z m51 -23 c14 -6 4
-10 -38 -12 -31 -2 -57 -1 -57 3 0 15 64 21 95 9z"/>
<path d="M152 214 c-27 -18 -28 -36 -4 -57 36 -33 102 -14 102 28 0 42 -56 59
-98 29z m76 -16 c17 -17 -4 -38 -40 -38 -32 0 -50 27 -27 41 20 12 53 11 67
-3z"/>
<path d="M157 103 c18 -2 50 -2 70 0 21 2 7 4 -32 4 -38 0 -55 -2 -38 -4z"/>
<path d="M384 187 c-2 -7 -4 -52 -2 -98 l3 -84 70 0 70 0 0 95 0 95 -68 3
c-50 2 -69 -1 -73 -11z m126 -27 c0 -16 -7 -20 -36 -20 -21 0 -33 -4 -29 -10
3 -5 19 -10 36 -10 27 0 29 -3 29 -35 l0 -35 -55 0 -55 0 0 33 c0 18 5 38 12
45 9 9 9 12 0 12 -7 0 -12 9 -12 20 0 18 7 20 55 20 48 0 55 -2 55 -20z m-22
-137 c-15 -2 -42 -2 -60 0 -18 2 -6 4 27 4 33 0 48 -2 33 -4z"/>
</g>
</svg>
